<svg xmlns="http://www.w3.org/2000/svg" xmlns:xlink="http://www.w3.org/1999/xlink" xmlns:lucid="lucid" width="771.2" height="1380"><g transform="translate(-594 20)" lucid:page-tab-id="0_0"><path d="M980 20c0 11.05-8.95 20-20 20s-20-8.95-20-20 8.95-20 20-20 20 8.95 20 20z" stroke="#666"/><path d="M960 41v12.62" stroke="#333" fill="none"/><path d="M959.98 40.5l.52-.02V41h-1v-.56z" fill="#333"/><path d="M960 68.38l-4.64-14.26h9.28z" stroke="#333" fill="#333"/><path d="M896 70c-8.84 0-16 7.16-16 16v48c0 8.84 7.16 16 16 16h128c8.84 0 16-7.16 16-16V86c0-8.84-7.16-16-16-16z" stroke="#000" stroke-opacity="0" fill="#00b098"/><use xlink:href="#a" transform="matrix(1,0,0,1,888,78) translate(38.46913580246914 26.488888888888887)"/><use xlink:href="#b" transform="matrix(1,0,0,1,888,78) translate(35.55555555555556 47.822222222222216)"/><path d="M960 150.5v47.77" stroke="#333" fill="none"/><path d="M960.5 150.5h-1v-.5h1z" fill="#333"/><path d="M960 213.04l-4.64-14.27h9.28z" stroke="#333" fill="#333"/><path d="M960 235.16v46.64" stroke="#333" fill="none"/><path d="M960.5 235.17h-1v-.5h1z" fill="#333"/><path d="M960 296.57l-4.64-14.27h9.28z" stroke="#333" fill="#333"/><path d="M796 397.5c-8.84 0-16 7.16-16 16v48c0 8.84 7.16 16 16 16h128c8.84 0 16-7.16 16-16v-48c0-8.84-7.16-16-16-16z" stroke="#000" stroke-opacity="0" fill="#00c2a8"/><use xlink:href="#c" transform="matrix(1,0,0,1,788,405.5) translate(25.18518518518518 26.488888888888887)"/><use xlink:href="#d" transform="matrix(1,0,0,1,788,405.5) translate(40.39506172839506 47.822222222222216)"/><use xlink:href="#e" transform="matrix(1,0,0,1,788,405.5) translate(70.0246913580247 47.822222222222216)"/><path d="M996 397.5c-8.84 0-16 7.16-16 16v48c0 8.84 7.16 16 16 16h128c8.84 0 16-7.16 16-16v-48c0-8.84-7.16-16-16-16z" stroke="#000" stroke-opacity="0" fill="#00c2a8"/><use xlink:href="#f" transform="matrix(1,0,0,1,988,405.5) translate(11.2 17.422222222222224)"/><use xlink:href="#d" transform="matrix(1,0,0,1,988,405.5) translate(57.61975308641976 17.422222222222224)"/><use xlink:href="#g" transform="matrix(1,0,0,1,988,405.5) translate(87.2493827160494 17.422222222222224)"/><use xlink:href="#h" transform="matrix(1,0,0,1,988,405.5) translate(11.2 38.75555555555556)"/><use xlink:href="#i" transform="matrix(1,0,0,1,988,405.5) translate(30.953086419753088 38.75555555555556)"/><use xlink:href="#j" transform="matrix(1,0,0,1,988,405.5) translate(11.2 60.088888888888896)"/><use xlink:href="#e" transform="matrix(1,0,0,1,988,405.5) translate(40.829629629629636 60.088888888888896)"/><path d="M953.34 301.94c3.68-2.45 9.64-2.45 13.32 0l46.68 31.12c3.68 2.45 3.68 6.43 0 8.88l-46.68 31.12c-3.68 2.45-9.64 2.45-13.32 0l-46.68-31.12c-3.68-2.45-3.68-6.43 0-8.88z" stroke="#009985" stroke-width="4" fill="#fff"/><path d="M880 561.97c0-4.4 3.58-8 8-8h144c4.42 0 8 3.6 8 8v27.53c0 4.42-3.58 8-8 8H888c-4.42 0-8-3.58-8-8z" stroke="#666"/><path d="M860 478v25.5c0 6.6 5.37 12 12 12h76c6.63 0 12 5.36 12 12v9.6" stroke="#333" fill="none"/><path d="M860.5 478h-1v-.5h1z" fill="#333"/><path d="M960 551.86l-4.64-14.27h9.28z" stroke="#333" fill="#333"/><path d="M1060 478v25.5c0 6.6-5.37 12-12 12h-76c-6.63 0-12 5.36-12 12v9.6" stroke="#333" fill="none"/><path d="M1060.5 478h-1v-.5h1z" fill="#333"/><path d="M960 551.86l-4.64-14.27h9.28z" stroke="#333" fill="#333"/><path d="M910 561.97c0-4.4 3.58-8 8-8h84c4.42 0 8 3.6 8 8v4c0 4.42-3.58 8-8 8h-84c-4.42 0-8-3.58-8-8z" stroke="#000" stroke-opacity="0" fill="#fff" fill-opacity="0"/><use xlink:href="#k" transform="matrix(1,0,0,1,915,558.9741971060533) translate(2.1370370370370466 12.622222222222224)"/><use xlink:href="#l" transform="matrix(1,0,0,1,915,558.9741971060533) translate(23.52469135802469 31.55555555555556)"/><path d="M896 757.5c-8.84 0-16 7.16-16 16v48c0 8.84 7.16 16 16 16h128c8.84 0 16-7.16 16-16v-48c0-8.84-7.16-16-16-16z" stroke="#000" stroke-opacity="0" fill="#77e5d7"/><use xlink:href="#m" transform="matrix(1,0,0,1,888,765.5000000000001) translate(20.17283950617284 26.488888888888887)"/><use xlink:href="#n" transform="matrix(1,0,0,1,888,765.5000000000001) translate(81.35802469135803 26.488888888888887)"/><use xlink:href="#o" transform="matrix(1,0,0,1,888,765.5000000000001) translate(35.061728395061735 47.822222222222216)"/><use xlink:href="#p" transform="matrix(1,0,0,1,888,765.5000000000001) translate(71.50617283950618 47.822222222222216)"/><path d="M960 598.5v19.04" stroke="#333" fill="none"/><path d="M960.5 598.5h-1v-.5h1z" fill="#333"/><path d="M960 632.3l-4.64-14.26h9.28z" stroke="#333" fill="#333"/><path d="M1061.52 381.12h-1V356.8h1zm-43-43.12v-1h27.82v1z" fill="#333"/><path d="M1018.54 338h-.6l.16-1h.44zM1061.02 395.88l-4.64-14.26h9.27z" fill="#333"/><path d="M1061.02 397.5l-5.32-16.38h10.64zm-3.95-15.38l3.95 12.14 3.95-12.14z" fill="#333"/><use xlink:href="#q" transform="matrix(1,0,0,1,1046.3446328914913,335.20308833903897) translate(0.005000000000000782 14.4)"/><path d="M859.48 381.12h-1V356.8h1zm42-43.12H871l-.54.07v-1l.5-.07h30.5z" fill="#333"/><path d="M901.9 338h-.44v-1h.6zM858.98 395.88l-4.63-14.26h9.27z" fill="#333"/><path d="M858.98 397.5l-5.32-16.38h10.64zm-3.95-15.38l3.95 12.14 3.95-12.14z" fill="#333"/><use xlink:href="#r" transform="matrix(1,0,0,1,847.5053671085086,335.20308833903897) translate(0.005000000000000782 14.4)"/><path d="M953.34 637.67c3.68-2.45 9.64-2.45 13.32 0l46.68 31.13c3.68 2.45 3.68 6.42 0 8.87l-46.68 31.13c-3.68 2.45-9.64 2.45-13.32 0l-46.68-31.13c-3.68-2.45-3.68-6.42 0-8.87z" stroke="#009985" stroke-width="4" fill="#fff"/><path d="M1071.24 673.16l3 1.24 2.6 2 2 2.6 1.24 3 .42 3.2v100.33l-.42 3.2-1.24 3-2 2.6-2.6 2-3 1.25-3.2.42h-11.66v-1h11.6l3-.4 2.76-1.14 2.4-1.83 1.82-2.4 1.14-2.75.4-3v-100.2l-.4-3.03-1.14-2.75-1.83-2.4-2.4-1.83-2.75-1.14-3-.4h-8.58v-1h8.63zm-52.7.58v-1h11.5v1zM1018.54 673.74h-.6l.16-1h.44zM1055.88 802.14l-14.26-4.64 14.26-4.64z" fill="#333"/><path d="M1056.38 802.82L1040 797.5l16.38-5.32zm-13.14-5.32l12.14 3.95v-7.9z" fill="#333"/><use xlink:href="#q" transform="matrix(1,0,0,1,1030.0509272315016,662.4370985530268) translate(0.005000000000000782 14.4)"/><path d="M858 673.74h-5.97l-3 .4-2.77 1.13-2.4 1.84-1.82 2.4-1.14 2.75-.4 3.02v100.2l.4 3 1.14 2.77 1.83 2.4 2.4 1.82 2.75 1.14 3 .4h11.6v1h-11.65l-3.2-.42-3-1.24-2.6-2-2-2.6-1.25-3-.42-3.2V685.2l.42-3.2 1.24-3 2-2.6 2.6-2 3-1.24 3.2-.42H858zm43.47 0h-20.52v-1h20.52z" fill="#333"/><path d="M901.9 673.74h-.44v-1h.6zM878.38 797.5l-14.26 4.64v-9.28z" fill="#333"/><path d="M880 797.5l-16.38 5.32v-10.64zm-15.38 3.95l12.14-3.95-12.14-3.95z" fill="#333"/><use xlink:href="#r" transform="matrix(1,0,0,1,858.0003314679226,662.4370985530268) translate(0.005000000000000782 14.4)"/><path d="M900 641.24c0-4.42 3.58-8 8-8h104c4.42 0 8 3.58 8 8v56.1c0 4.43-3.58 8-8 8H908c-4.42 0-8-3.57-8-8z" stroke="#000" stroke-opacity="0" fill="#fff" fill-opacity="0"/><use xlink:href="#s" transform="matrix(1,0,0,1,905,638.2370985530267) translate(47.133024691358024 16.559722222222224)"/><use xlink:href="#t" transform="matrix(1,0,0,1,905,638.2370985530267) translate(51.51574074074074 16.559722222222224)"/><use xlink:href="#u" transform="matrix(1,0,0,1,905,638.2370985530267) translate(14.70092592592593 35.49305555555556)"/><use xlink:href="#v" transform="matrix(1,0,0,1,905,638.2370985530267) translate(22.589814814814815 54.426388888888894)"/><path d="M953.34 886.2c3.68-2.45 9.64-2.45 13.32 0l46.68 31.13c3.68 2.45 3.68 6.42 0 8.87l-46.68 31.13c-3.68 2.45-9.64 2.45-13.32 0l-46.68-31.13c-3.68-2.45-3.68-6.42 0-8.87z" stroke="#009985" stroke-width="4" fill="#fff"/><path d="M960 838v28.06" stroke="#333" fill="none"/><path d="M960.5 838h-1v-.5h1z" fill="#333"/><path d="M960 880.83l-4.64-14.27h9.28z" stroke="#333" fill="#333"/><path d="M713.34 1061.94c3.68-2.45 9.64-2.45 13.32 0l46.68 31.12c3.68 2.45 3.68 6.43 0 8.88l-46.68 31.12c-3.68 2.45-9.64 2.45-13.32 0l-46.68-31.12c-3.68-2.45-3.68-6.43 0-8.88z" stroke="#009985" stroke-width="4" fill="#fff"/><path d="M656 881.76c-8.84 0-16 7.17-16 16v48c0 8.84 7.16 16 16 16h128c8.84 0 16-7.16 16-16v-48c0-8.83-7.16-16-16-16z" stroke="#000" stroke-opacity="0" fill="#77e5d7"/><use xlink:href="#m" transform="matrix(1,0,0,1,648,889.7629014469734) translate(14.271604938271604 26.488888888888887)"/><use xlink:href="#w" transform="matrix(1,0,0,1,648,889.7629014469734) translate(75.4567901234568 26.488888888888887)"/><use xlink:href="#x" transform="matrix(1,0,0,1,648,889.7629014469734) translate(101.08641975308643 26.488888888888887)"/><use xlink:href="#y" transform="matrix(1,0,0,1,648,889.7629014469734) translate(22.66666666666666 47.822222222222216)"/><use xlink:href="#e" transform="matrix(1,0,0,1,648,889.7629014469734) translate(87.75308641975309 47.822222222222216)"/><path d="M839.5 922.26H816.4v-1h23.13zm61.97 0h-39v-1h39z" fill="#333"/><path d="M901.9 922.26h-.44v-1h.6zM815.88 926.4l-14.26-4.64 14.26-4.63z" fill="#333"/><path d="M816.38 927.1L800 921.75l16.38-5.32zm-13.14-5.34l12.14 3.95v-7.88z" fill="#333"/><use xlink:href="#r" transform="matrix(1,0,0,1,839.5120952152154,910.9629014469734) translate(0.005000000000000782 14.4)"/><path d="M720 962.26v79.54" stroke="#333" fill="none"/><path d="M720.5 962.28h-1v-.52h1z" fill="#333"/><path d="M720 1056.57l-4.64-14.27h9.28z" stroke="#333" fill="#333"/><path d="M680 1072.1c0-4.42 3.58-8 8-8h64c4.42 0 8 3.58 8 8v50.8c0 4.42-3.58 8-8 8h-64c-4.42 0-8-3.58-8-8z" stroke="#000" stroke-opacity="0" fill="#fff" fill-opacity="0"/><use xlink:href="#s" transform="matrix(1,0,0,1,685,1069.1) translate(9.580246913580247 23.309722222222224)"/><use xlink:href="#z" transform="matrix(1,0,0,1,685,1069.1) translate(13.962962962962962 23.309722222222224)"/><use xlink:href="#A" transform="matrix(1,0,0,1,685,1069.1) translate(30.61728395061728 23.309722222222224)"/><use xlink:href="#B" transform="matrix(1,0,0,1,685,1069.1) translate(10.895061728395063 42.24305555555556)"/><path d="M820.26 1097.42l3 1.24 2.6 2 2 2.6 1.23 3 .4 3.2v98.5l.4 3.02 1.15 2.76 1.83 2.4 2.4 1.82 2.75 1.14 3.02.4h22.57v1h-22.64l-3.2-.42-3-1.24-2.6-2-2-2.6-1.25-3-.42-3.2v-98.5l-.38-3.02-1.14-2.76-1.84-2.4-2.4-1.82-2.74-1.14-3.02-.4h-1.72v-1h1.8zm-41.73.58v-1h7.38v1z" fill="#333"/><path d="M778.54 1098h-.6l.16-1h.44zM878.38 1220l-14.26 4.64v-9.28z" fill="#333"/><path d="M880 1220l-16.38 5.32v-10.64zm-15.38 3.95l12.14-3.95-12.14-3.95z" fill="#333"/><use xlink:href="#q" transform="matrix(1,0,0,1,785.9091894960558,1086.7) translate(0.005000000000000782 14.4)"/><path d="M960 1200" stroke="#333" fill="none"/><path fill="#333"/><path d="M958.38 1200l-14.26 4.64v-9.28z" stroke="#333" fill="#333"/><path d="M888 1200c-4.42 0-8 3.58-8 8v24c0 4.42 3.58 8 8 8h144c4.42 0 8-3.58 8-8v-24c0-4.42-3.58-8-8-8z" stroke="#000" stroke-opacity="0" fill="#77e5d7"/><path d="M623.62 922.26h-11.6l-3 .4-2.76 1.14-2.4 1.83-1.82 2.4-1.14 2.75-.4 3.02v151.67l.4 3 1.14 2.77 1.83 2.4 2.4 1.82 2.75 1.14 3 .4H627v1h-15l-3.22-.42-3-1.24-2.6-2-2-2.6-1.24-3-.42-3.2v-151.8l.42-3.22 1.24-3 2-2.6 2.6-2 3-1.24 3.2-.42h11.66zM661.47 1097v1h-11.54v-1z" fill="#333"/><path d="M661.9 1098h-.44v-1h.6zM638.38 921.76l-14.26 4.64v-9.27z" fill="#333"/><path d="M640 921.76l-16.38 5.33v-10.66zm-15.38 3.95l12.14-3.94-12.14-3.94z" fill="#333"/><use xlink:href="#r" transform="matrix(1,0,0,1,626.9815474519254,1086.7) translate(0.005000000000000782 14.4)"/><path d="M980 1320c0 11.05-8.95 20-20 20s-20-8.95-20-20 8.95-20 20-20 20 8.95 20 20z" stroke="#666" fill="#fff"/><path d="M972 1320c0 6.63-5.37 12-12 12s-12-5.37-12-12 5.37-12 12-12 12 5.37 12 12z" stroke="#666"/><path d="M920 896.36c0-4.42 3.58-8 8-8h64c4.42 0 8 3.58 8 8v50.8c0 4.42-3.58 8-8 8h-64c-4.42 0-8-3.58-8-8z" stroke="#000" stroke-opacity="0" fill="#fff" fill-opacity="0"/><use xlink:href="#s" transform="matrix(1,0,0,1,925,893.3629014469734) translate(9.580246913580247 23.309722222222224)"/><use xlink:href="#z" transform="matrix(1,0,0,1,925,893.3629014469734) translate(13.962962962962962 23.309722222222224)"/><use xlink:href="#A" transform="matrix(1,0,0,1,925,893.3629014469734) translate(30.61728395061728 23.309722222222224)"/><use xlink:href="#B" transform="matrix(1,0,0,1,925,893.3629014469734) translate(10.895061728395063 42.24305555555556)"/><path d="M1153.34 959.6c3.68-2.45 9.64-2.45 13.32 0l46.68 31.13c3.68 2.45 3.68 6.42 0 8.87l-46.68 31.13c-3.68 2.45-9.64 2.45-13.32 0l-46.68-31.13c-3.68-2.45-3.68-6.42 0-8.87z" stroke="#009985" stroke-width="4" fill="#fff"/><path d="M1120 969.76c0-4.42 3.58-8 8-8h64c4.42 0 8 3.58 8 8v50.8c0 4.42-3.58 8-8 8h-64c-4.42 0-8-3.58-8-8z" stroke="#000" stroke-opacity="0" fill="#fff" fill-opacity="0"/><use xlink:href="#C" transform="matrix(1,0,0,1,1125,966.7629014469735) translate(14.44506172839506 12.622222222222224)"/><use xlink:href="#D" transform="matrix(1,0,0,1,1125,966.7629014469735) translate(31.09938271604938 12.622222222222224)"/><use xlink:href="#E" transform="matrix(1,0,0,1,1125,966.7629014469735) translate(43.32716049382716 12.622222222222224)"/><use xlink:href="#F" transform="matrix(1,0,0,1,1125,966.7629014469735) translate(12.23179012345679 31.55555555555556)"/><use xlink:href="#G" transform="matrix(1,0,0,1,1125,966.7629014469735) translate(13.524691358024693 50.488888888888894)"/><path d="M1151.24 921.68l3 1.25 2.6 2 2 2.6 1.24 3 .42 3.2v5.73h-1v-5.66l-.4-3.02-1.14-2.76-1.83-2.4-2.4-1.82-2.75-1.14-3-.4h-27.25v-1h27.3zm-132.7.58v-1h72.84v1zM1018.54 922.26h-.6l.16-1h.44zM1160 954.23l-4.64-14.27h9.28z" fill="#333"/><path d="M1160 955.85l-5.32-16.4h10.64zm-3.95-15.4l3.95 12.16 3.95-12.14z" fill="#333"/><g><use xlink:href="#q" transform="matrix(1,0,0,1,1091.379839082767,910.9629014469734) translate(0.005000000000000782 14.4)"/></g><path d="M900 305.5c0-4.42 3.58-8 8-8h104c4.42 0 8 3.58 8 8v56.1c0 4.43-3.58 8-8 8H908c-4.42 0-8-3.57-8-8z" stroke="#000" stroke-opacity="0" fill="#fff" fill-opacity="0"/><g><use xlink:href="#s" transform="matrix(1,0,0,1,905,302.50000000000006) translate(47.133024691358024 16.559722222222224)"/><use xlink:href="#t" transform="matrix(1,0,0,1,905,302.50000000000006) translate(51.51574074074074 16.559722222222224)"/><use xlink:href="#u" transform="matrix(1,0,0,1,905,302.50000000000006) translate(14.70092592592593 35.49305555555556)"/><use xlink:href="#v" transform="matrix(1,0,0,1,905,302.50000000000006) translate(22.589814814814815 54.426388888888894)"/></g><path d="M1280.5 983.2l-.42 3.2-1.24 3-2 2.6-2.6 2-3 1.24-3.2.42h-49.5v-1h49.43l3-.4 2.77-1.13 2.4-1.84 1.82-2.4 1.14-2.75.4-3.02V900.2h1zm-9.26-166.14l3 1.24 2.6 2 2 2.6 1.24 3 .42 3.2v52.18h-1v-52.1l-.4-3.03-1.14-2.75-1.83-2.4-2.4-1.83-2.75-1.14-3-.4h-211.6v-1h211.65z" fill="#333"/><path d="M1218.54 995.66h-.6l.16-1h.44zM1055.88 821.77l-14.26-4.63 14.26-4.64z" fill="#333"/><path d="M1056.38 822.46l-16.38-5.32 16.38-5.33zm-13.14-5.32l12.14 3.94v-7.9z" fill="#333"/><g><use xlink:href="#H" transform="matrix(1,0,0,1,1200.8043209876544,881.2792513728407) translate(0.0049999999999954525 12.622222222222224)"/><use xlink:href="#I" transform="matrix(1,0,0,1,1200.8043209876544,881.2792513728407) translate(38.572901234567894 12.622222222222224)"/><use xlink:href="#J" transform="matrix(1,0,0,1,1200.8043209876544,881.2792513728407) translate(54.306851851851846 12.622222222222224)"/></g><path d="M1160.5 1085.27l-.42 3.2-1.24 3-2 2.6-2.6 2-3 1.25-3.2.42h-176l-3.02.4-2.76 1.14-2.4 1.83-1.82 2.4-1.14 2.76-.4 3v34.36h-1v-34.4l.42-3.22 1.24-3 2-2.6 2.6-2 3-1.24 3.2-.42h176l3.02-.4 2.76-1.14 2.4-1.83 1.82-2.4 1.14-2.75.4-3v-13.42h1zm0-35.07h-1v-15.22h1z" fill="#333"/><path d="M1160.5 1034.5v.5h-1v-.55zM960 1158.38l-4.64-14.26h9.28z" fill="#333"/><path d="M960 1160l-5.32-16.38h10.64zm-3.95-15.38l3.95 12.14 3.95-12.14z" fill="#333"/><g><use xlink:href="#q" transform="matrix(1,0,0,1,1145.325,1050.2043301401088) translate(0.005000000000000782 14.4)"/></g><path d="M817.54 921.38l2.84 1.75 1.12 3.16v3.28l.53 2.78 1.57 2.4 2.36 1.63 2.96.6h34.6l3.22.42 3 1.24 2.6 2 2 2.6 1.23 3 .42 3.2v33.67l.4 3.02 1.13 2.75 1.83 2.4 2.4 1.83 2.75 1.14 3.03.4h161.2v1H887.47l-3.2-.43-3-1.24-2.6-2-2-2.6-1.25-3-.4-3.2v-33.67l-.4-3-1.14-2.77-1.84-2.4-2.4-1.82-2.74-1.14-3.02-.4h-34.64l-3.26-.67-2.7-1.85-1.77-2.74-.6-3.06v-3.2l-.95-2.68-2.34-1.45-.87-.1.1-.98zm283.93 73.28v1h-29.78v-1z" fill="#333"/><path d="M1101.9 995.66h-.44v-1h.6zM815.88 926.4l-14.26-4.64 14.26-4.63z" fill="#333"/><path d="M816.38 927.1L800 921.75l16.38-5.32zm-13.14-5.34l12.14 3.95v-7.88z" fill="#333"/><g><use xlink:href="#r" transform="matrix(1,0,0,1,1048.742692602868,984.3629014469735) translate(0.005000000000000782 14.4)"/></g><path d="M880 222.66c0-4.42 3.58-8 8-8h144c4.42 0 8 3.58 8 8v27.52c0 4.42-3.58 8-8 8H888c-4.42 0-8-3.58-8-8z" stroke="#666"/><path d="M910 222.66c0-4.42 3.58-8 8-8h84c4.42 0 8 3.58 8 8v4c0 4.42-3.58 8-8 8h-84c-4.42 0-8-3.58-8-8z" stroke="#000" stroke-opacity="0" fill="#fff" fill-opacity="0"/><g><use xlink:href="#K" transform="matrix(1,0,0,1,915,219.65806570201772) translate(-7.044753086419746 12.622222222222224)"/><use xlink:href="#l" transform="matrix(1,0,0,1,915,219.65806570201772) translate(23.52469135802469 31.55555555555556)"/></g><path d="M888 1160c-4.42 0-8 3.58-8 8v24c0 4.42 3.58 8 8 8h144c4.42 0 8-3.58 8-8v-24c0-4.42-3.58-8-8-8z" stroke="#000" stroke-opacity="0" fill="#00c2a8"/><path d="M880 1165.7c0-4.42 3.58-8 8-8h144c4.42 0 8 3.58 8 8v24c0 4.42-3.58 8-8 8H888c-4.42 0-8-3.58-8-8z" stroke="#000" stroke-opacity="0" fill="#fff" fill-opacity="0"/><g><use xlink:href="#L" transform="matrix(1,0,0,1,885,1162.6999999999998) translate(13.729629629629628 18.434722222222224)"/><use xlink:href="#M" transform="matrix(1,0,0,1,885,1162.6999999999998) translate(76.75308641975309 18.434722222222224)"/><use xlink:href="#N" transform="matrix(1,0,0,1,885,1162.6999999999998) translate(103.04938271604938 18.434722222222224)"/></g><path d="M880 1208c0-4.42 3.58-8 8-8h144c4.42 0 8 3.58 8 8v24c0 4.42-3.58 8-8 8H888c-4.42 0-8-3.58-8-8z" stroke="#000" stroke-opacity="0" fill="#fff" fill-opacity="0"/><g><use xlink:href="#O" transform="matrix(1,0,0,1,885,1205) translate(12.392901234567908 18.434722222222224)"/><use xlink:href="#M" transform="matrix(1,0,0,1,885,1205) translate(81.50833333333333 18.434722222222224)"/><use xlink:href="#P" transform="matrix(1,0,0,1,885,1205) translate(107.80462962962963 18.434722222222224)"/></g><path d="M960 1240.5v42.62" stroke="#333" fill="none"/><path d="M960.5 1240.5h-1v-.5h1z" fill="#333"/><path d="M960 1297.88l-4.64-14.26h9.28z" stroke="#333" fill="#333"/><defs><path d="M222 0l43-216c-8 16-17 34-26 49L143 0h-22L81-216 41 0H11l48-248h42l38 208 116-208h45L252 0h-30" id="Q"/><path d="M165-48c-4 18 1 34 23 27l-3 20c-29 8-62 0-52-35h-2C116-14 99 4 63 4 30 4 8-16 8-49c0-68 71-67 138-67 10-26 0-56-31-54-26 1-42 9-47 31l-32-5c8-67 160-71 144 15-5 28-9 54-15 81zM42-50c3 52 80 24 89-6 7-12 7-24 11-38-47 1-103-4-100 44" id="R"/><path d="M44-68c0 29 11 47 38 47 30 0 42-19 51-41l28 9C148-21 126 4 82 4 31 4 10-29 12-85c3-77 74-140 146-93 12 8 15 23 18 40l-31 5c-1-22-13-36-36-36-52 0-65 49-65 101" id="S"/><path d="M67-158c15-20 31-36 64-36 94 0 33 127 27 194h-32l25-140c3-38-53-32-70-12C52-117 51-51 37 0H6l51-261h31" id="T"/><path d="M50-231l6-30h32l-6 30H50zM6 0l37-190h31L37 0H6" id="U"/><path d="M67-158c22-48 132-52 116 29L158 0h-32l25-140c3-38-53-32-70-12C52-117 51-52 38 0H6l36-190h30" id="V"/><path d="M111-194c62-3 86 47 72 106H45c-7 38 6 69 45 68 27-1 43-14 53-32l24 11C152-15 129 4 87 4 38 3 12-23 12-71c0-70 32-119 99-123zm44 81c14-66-71-72-95-28-4 8-8 17-11 28h106" id="W"/><g id="a"><use transform="matrix(0.04938271604938272,0,0,0.04938271604938272,0,0)" xlink:href="#Q"/><use transform="matrix(0.04938271604938272,0,0,0.04938271604938272,14.765432098765434,0)" xlink:href="#R"/><use transform="matrix(0.04938271604938272,0,0,0.04938271604938272,24.641975308641978,0)" xlink:href="#S"/><use transform="matrix(0.04938271604938272,0,0,0.04938271604938272,33.53086419753087,0)" xlink:href="#T"/><use transform="matrix(0.04938271604938272,0,0,0.04938271604938272,43.40740740740741,0)" xlink:href="#U"/><use transform="matrix(0.04938271604938272,0,0,0.04938271604938272,47.308641975308646,0)" xlink:href="#V"/><use transform="matrix(0.04938271604938272,0,0,0.04938271604938272,57.18518518518519,0)" xlink:href="#W"/></g><path d="M30-147c31-64 166-65 159 27C183-49 158 1 86 4 9 8 1-88 30-147zM88-20c53 0 68-48 68-100 0-31-11-51-44-50-52 1-68 46-68 97 0 32 13 53 44 53" id="X"/><path d="M51-54c-9 22 5 41 31 30L79-1C43 14 10-4 19-52l22-115H19l5-23h22l19-43h21l-9 43h35l-4 23H73" id="Y"/><path d="M66-151c12-25 30-51 66-40l-6 26C45-176 58-65 38 0H6l36-190h30" id="Z"/><path d="M6 0l50-261h32L37 0H6" id="aa"/><g id="b"><use transform="matrix(0.04938271604938272,0,0,0.04938271604938272,0,0)" xlink:href="#S"/><use transform="matrix(0.04938271604938272,0,0,0.04938271604938272,8.88888888888889,0)" xlink:href="#X"/><use transform="matrix(0.04938271604938272,0,0,0.04938271604938272,18.765432098765434,0)" xlink:href="#V"/><use transform="matrix(0.04938271604938272,0,0,0.04938271604938272,28.641975308641978,0)" xlink:href="#Y"/><use transform="matrix(0.04938271604938272,0,0,0.04938271604938272,33.580246913580254,0)" xlink:href="#Z"/><use transform="matrix(0.04938271604938272,0,0,0.04938271604938272,39.4567901234568,0)" xlink:href="#X"/><use transform="matrix(0.04938271604938272,0,0,0.04938271604938272,49.33333333333334,0)" xlink:href="#aa"/><use transform="matrix(0.04938271604938272,0,0,0.04938271604938272,53.23456790123457,0)" xlink:href="#aa"/><use transform="matrix(0.04938271604938272,0,0,0.04938271604938272,57.135802469135804,0)" xlink:href="#W"/><use transform="matrix(0.04938271604938272,0,0,0.04938271604938272,67.01234567901236,0)" xlink:href="#Z"/></g><path d="M248-139C247-14 144 9 11 0l48-248c105-6 190 8 189 109zm-34 0c1-70-52-87-126-82L50-27c98 7 163-21 164-112" id="ab"/><path d="M67-162c32-53 139-36 121 50C175-51 163 2 97 4 68 4 52-11 42-31 38 6 28 39 22 75H-9l50-265h29c-1 10 0 20-3 28zm89 36c0-26-10-43-35-43-54 0-67 50-69 103-1 29 14 45 42 46 53 0 62-58 62-106" id="ac"/><path d="M89 0H52L20-190h33L74-25l89-165h34" id="ad"/><path d="M55-144c13 50 104 24 104 88C159 21 15 23 1-39l26-10c6 40 102 42 102-4-13-50-104-23-104-87 0-71 143-71 148-8l-29 4c-5-35-85-37-89 0" id="ae"/><g id="c"><use transform="matrix(0.04938271604938272,0,0,0.04938271604938272,0,0)" xlink:href="#ab"/><use transform="matrix(0.04938271604938272,0,0,0.04938271604938272,12.790123456790125,0)" xlink:href="#W"/><use transform="matrix(0.04938271604938272,0,0,0.04938271604938272,22.66666666666667,0)" xlink:href="#ac"/><use transform="matrix(0.04938271604938272,0,0,0.04938271604938272,32.543209876543216,0)" xlink:href="#Z"/><use transform="matrix(0.04938271604938272,0,0,0.04938271604938272,38.41975308641976,0)" xlink:href="#X"/><use transform="matrix(0.04938271604938272,0,0,0.04938271604938272,48.296296296296305,0)" xlink:href="#ad"/><use transform="matrix(0.04938271604938272,0,0,0.04938271604938272,57.18518518518519,0)" xlink:href="#U"/><use transform="matrix(0.04938271604938272,0,0,0.04938271604938272,61.086419753086425,0)" xlink:href="#ae"/><use transform="matrix(0.04938271604938272,0,0,0.04938271604938272,69.97530864197532,0)" xlink:href="#U"/><use transform="matrix(0.04938271604938272,0,0,0.04938271604938272,73.87654320987656,0)" xlink:href="#X"/><use transform="matrix(0.04938271604938272,0,0,0.04938271604938272,83.7530864197531,0)" xlink:href="#V"/></g><g id="d"><use transform="matrix(0.04938271604938272,0,0,0.04938271604938272,0,0)" xlink:href="#Y"/><use transform="matrix(0.04938271604938272,0,0,0.04938271604938272,4.938271604938272,0)" xlink:href="#T"/><use transform="matrix(0.04938271604938272,0,0,0.04938271604938272,14.814814814814817,0)" xlink:href="#W"/></g><g id="e"><use transform="matrix(0.04938271604938272,0,0,0.04938271604938272,0,0)" xlink:href="#T"/><use transform="matrix(0.04938271604938272,0,0,0.04938271604938272,9.876543209876544,0)" xlink:href="#X"/><use transform="matrix(0.04938271604938272,0,0,0.04938271604938272,19.75308641975309,0)" xlink:href="#ae"/><use transform="matrix(0.04938271604938272,0,0,0.04938271604938272,28.641975308641978,0)" xlink:href="#Y"/></g><path d="M9 0l6-27h63l36-188-63 39 6-31 66-41h29L110-27h60l-5 27H9" id="af"/><path d="M14 0l8-38h34L48 0H14" id="ag"/><path d="M194-120c59 52 2 134-86 124-53-6-90-18-98-63l31-7c8 30 29 43 70 43 46 0 84-17 71-62-32-43-135-20-137-98-3-89 178-90 191-16l-30 9c-8-48-127-53-127 5 0 53 81 35 115 65" id="ah"/><g id="f"><use transform="matrix(0.04938271604938272,0,0,0.04938271604938272,0,0)" xlink:href="#af"/><use transform="matrix(0.04938271604938272,0,0,0.04938271604938272,9.876543209876544,0)" xlink:href="#ag"/><use transform="matrix(0.04938271604938272,0,0,0.04938271604938272,14.814814814814817,0)" xlink:href="#ah"/><use transform="matrix(0.04938271604938272,0,0,0.04938271604938272,26.666666666666668,0)" xlink:href="#W"/><use transform="matrix(0.04938271604938272,0,0,0.04938271604938272,36.543209876543216,0)" xlink:href="#Y"/></g><path d="M68-162c25-46 127-43 121 31C183-60 169 1 98 4 69 5 53-11 43-31L36 0H5l52-261h31zm88 36c2-27-9-43-34-43-55 0-70 51-70 103 0 29 15 45 43 46 52 0 58-58 61-106" id="ai"/><g id="g"><use transform="matrix(0.04938271604938272,0,0,0.04938271604938272,0,0)" xlink:href="#aa"/><use transform="matrix(0.04938271604938272,0,0,0.04938271604938272,3.901234567901235,0)" xlink:href="#R"/><use transform="matrix(0.04938271604938272,0,0,0.04938271604938272,13.777777777777779,0)" xlink:href="#ai"/><use transform="matrix(0.04938271604938272,0,0,0.04938271604938272,23.654320987654323,0)" xlink:href="#W"/><use transform="matrix(0.04938271604938272,0,0,0.04938271604938272,33.53086419753087,0)" xlink:href="#aa"/></g><path d="M123-251c66 0 92 69 53 113C138-94 73-75 39-27h128l-5 27H-2c17-92 123-93 159-163 14-28-1-64-36-62-29 2-46 17-54 41l-30-6c13-36 37-61 86-61" id="aj"/><g id="h"><use transform="matrix(0.04938271604938272,0,0,0.04938271604938272,0,0)" xlink:href="#aj"/><use transform="matrix(0.04938271604938272,0,0,0.04938271604938272,9.876543209876544,0)" xlink:href="#ag"/></g><g id="i"><use transform="matrix(0.04938271604938272,0,0,0.04938271604938272,0,0)" xlink:href="#ab"/><use transform="matrix(0.04938271604938272,0,0,0.04938271604938272,12.790123456790125,0)" xlink:href="#W"/><use transform="matrix(0.04938271604938272,0,0,0.04938271604938272,22.66666666666667,0)" xlink:href="#ac"/><use transform="matrix(0.04938271604938272,0,0,0.04938271604938272,32.543209876543216,0)" xlink:href="#Z"/><use transform="matrix(0.04938271604938272,0,0,0.04938271604938272,38.41975308641976,0)" xlink:href="#X"/><use transform="matrix(0.04938271604938272,0,0,0.04938271604938272,48.296296296296305,0)" xlink:href="#ad"/><use transform="matrix(0.04938271604938272,0,0,0.04938271604938272,57.18518518518519,0)" xlink:href="#U"/><use transform="matrix(0.04938271604938272,0,0,0.04938271604938272,61.086419753086425,0)" xlink:href="#ae"/><use transform="matrix(0.04938271604938272,0,0,0.04938271604938272,69.97530864197532,0)" xlink:href="#U"/><use transform="matrix(0.04938271604938272,0,0,0.04938271604938272,73.87654320987656,0)" xlink:href="#X"/><use transform="matrix(0.04938271604938272,0,0,0.04938271604938272,83.7530864197531,0)" xlink:href="#V"/></g><g id="j"><use transform="matrix(0.04938271604938272,0,0,0.04938271604938272,0,0)" xlink:href="#Y"/><use transform="matrix(0.04938271604938272,0,0,0.04938271604938272,4.938271604938272,0)" xlink:href="#T"/><use transform="matrix(0.04938271604938272,0,0,0.04938271604938272,14.814814814814817,0)" xlink:href="#W"/></g><path fill="#fff" d="M30-248c87 1 191-15 191 75 0 78-77 80-158 76V0H30v-248zm33 125c57 0 124 11 124-50 0-59-68-47-124-48v98" id="ak"/><path fill="#fff" d="M114-163C36-179 61-72 57 0H25l-1-190h30c1 12-1 29 2 39 6-27 23-49 58-41v29" id="al"/><path fill="#fff" d="M100-194c62-1 85 37 85 99 1 63-27 99-86 99S16-35 15-95c0-66 28-99 85-99zM99-20c44 1 53-31 53-75 0-43-8-75-51-75s-53 32-53 75 10 74 51 75" id="am"/><path fill="#fff" d="M108 0H70L1-190h34L89-25l56-165h34" id="an"/><path fill="#fff" d="M24-231v-30h32v30H24zM24 0v-190h32V0H24" id="ao"/><path fill="#fff" d="M135-143c-3-34-86-38-87 0 15 53 115 12 119 90S17 21 10-45l28-5c4 36 97 45 98 0-10-56-113-15-118-90-4-57 82-63 122-42 12 7 21 19 24 35" id="ap"/><path fill="#fff" d="M117-194c89-4 53 116 60 194h-32v-121c0-31-8-49-39-48C34-167 62-67 57 0H25l-1-190h30c1 10-1 24 2 32 11-22 29-35 61-36" id="aq"/><path fill="#fff" d="M177-190C167-65 218 103 67 71c-23-6-38-20-44-43l32-5c15 47 100 32 89-28v-30C133-14 115 1 83 1 29 1 15-40 15-95c0-56 16-97 71-98 29-1 48 16 59 35 1-10 0-23 2-32h30zM94-22c36 0 50-32 50-73 0-42-14-75-50-75-39 0-46 34-46 75s6 73 46 73" id="ar"/><g id="k"><use transform="matrix(0.043827160493827164,0,0,0.043827160493827164,0,0)" xlink:href="#ak"/><use transform="matrix(0.043827160493827164,0,0,0.043827160493827164,10.518518518518519,0)" xlink:href="#al"/><use transform="matrix(0.043827160493827164,0,0,0.043827160493827164,15.733950617283952,0)" xlink:href="#am"/><use transform="matrix(0.043827160493827164,0,0,0.043827160493827164,24.499382716049386,0)" xlink:href="#an"/><use transform="matrix(0.043827160493827164,0,0,0.043827160493827164,32.38827160493827,0)" xlink:href="#ao"/><use transform="matrix(0.043827160493827164,0,0,0.043827160493827164,35.85061728395061,0)" xlink:href="#ap"/><use transform="matrix(0.043827160493827164,0,0,0.043827160493827164,43.7395061728395,0)" xlink:href="#ao"/><use transform="matrix(0.043827160493827164,0,0,0.043827160493827164,47.20185185185184,0)" xlink:href="#am"/><use transform="matrix(0.043827160493827164,0,0,0.043827160493827164,55.967283950617265,0)" xlink:href="#aq"/><use transform="matrix(0.043827160493827164,0,0,0.043827160493827164,64.7327160493827,0)" xlink:href="#ao"/><use transform="matrix(0.043827160493827164,0,0,0.043827160493827164,68.19506172839505,0)" xlink:href="#aq"/><use transform="matrix(0.043827160493827164,0,0,0.043827160493827164,76.96049382716048,0)" xlink:href="#ar"/></g><path fill="#fff" d="M115-194c55 1 70 41 70 98S169 2 115 4C84 4 66-9 55-30l1 105H24l-1-265h31l2 30c10-21 28-34 59-34zm-8 174c40 0 45-34 45-75s-6-73-45-74c-42 0-51 32-51 76 0 43 10 73 51 73" id="as"/><path fill="#fff" d="M106-169C34-169 62-67 57 0H25v-261h32l-1 103c12-21 28-36 61-36 89 0 53 116 60 194h-32v-121c2-32-8-49-39-48" id="at"/><path fill="#fff" d="M141-36C126-15 110 5 73 4 37 3 15-17 15-53c-1-64 63-63 125-63 3-35-9-54-41-54-24 1-41 7-42 31l-33-3c5-37 33-52 76-52 45 0 72 20 72 64v82c-1 20 7 32 28 27v20c-31 9-61-2-59-35zM48-53c0 20 12 33 32 33 41-3 63-29 60-74-43 2-92-5-92 41" id="au"/><path fill="#fff" d="M100-194c63 0 86 42 84 106H49c0 40 14 67 53 68 26 1 43-12 49-29l28 8c-11 28-37 45-77 45C44 4 14-33 15-96c1-61 26-98 85-98zm52 81c6-60-76-77-97-28-3 7-6 17-6 28h103" id="av"/><g id="l"><use transform="matrix(0.043827160493827164,0,0,0.043827160493827164,0,0)" xlink:href="#as"/><use transform="matrix(0.043827160493827164,0,0,0.043827160493827164,8.765432098765432,0)" xlink:href="#at"/><use transform="matrix(0.043827160493827164,0,0,0.043827160493827164,17.530864197530864,0)" xlink:href="#au"/><use transform="matrix(0.043827160493827164,0,0,0.043827160493827164,26.296296296296298,0)" xlink:href="#ap"/><use transform="matrix(0.043827160493827164,0,0,0.043827160493827164,34.18518518518519,0)" xlink:href="#av"/></g><g id="m"><use transform="matrix(0.04938271604938272,0,0,0.04938271604938272,0,0)" xlink:href="#ah"/><use transform="matrix(0.04938271604938272,0,0,0.04938271604938272,11.851851851851853,0)" xlink:href="#W"/><use transform="matrix(0.04938271604938272,0,0,0.04938271604938272,21.7283950617284,0)" xlink:href="#R"/><use transform="matrix(0.04938271604938272,0,0,0.04938271604938272,31.60493827160494,0)" xlink:href="#Z"/><use transform="matrix(0.04938271604938272,0,0,0.04938271604938272,37.48148148148149,0)" xlink:href="#S"/><use transform="matrix(0.04938271604938272,0,0,0.04938271604938272,46.37037037037038,0)" xlink:href="#T"/></g><g id="n"><use transform="matrix(0.04938271604938272,0,0,0.04938271604938272,0,0)" xlink:href="#T"/><use transform="matrix(0.04938271604938272,0,0,0.04938271604938272,9.876543209876544,0)" xlink:href="#X"/><use transform="matrix(0.04938271604938272,0,0,0.04938271604938272,19.75308641975309,0)" xlink:href="#ae"/><use transform="matrix(0.04938271604938272,0,0,0.04938271604938272,28.641975308641978,0)" xlink:href="#Y"/><use transform="matrix(0.04938271604938272,0,0,0.04938271604938272,33.580246913580254,0)" xlink:href="#ae"/></g><path d="M188 0h-37l-8-164L71 0H34L18-190h31l8 164 75-164h34l8 164 74-164h31" id="aw"/><g id="o"><use transform="matrix(0.04938271604938272,0,0,0.04938271604938272,0,0)" xlink:href="#aw"/><use transform="matrix(0.04938271604938272,0,0,0.04938271604938272,12.790123456790125,0)" xlink:href="#U"/><use transform="matrix(0.04938271604938272,0,0,0.04938271604938272,16.69135802469136,0)" xlink:href="#Y"/><use transform="matrix(0.04938271604938272,0,0,0.04938271604938272,21.629629629629633,0)" xlink:href="#T"/></g><g id="p"><use transform="matrix(0.04938271604938272,0,0,0.04938271604938272,0,0)" xlink:href="#aa"/><use transform="matrix(0.04938271604938272,0,0,0.04938271604938272,3.901234567901235,0)" xlink:href="#R"/><use transform="matrix(0.04938271604938272,0,0,0.04938271604938272,13.777777777777779,0)" xlink:href="#ai"/><use transform="matrix(0.04938271604938272,0,0,0.04938271604938272,23.654320987654323,0)" xlink:href="#W"/><use transform="matrix(0.04938271604938272,0,0,0.04938271604938272,33.53086419753087,0)" xlink:href="#aa"/></g><path fill="#333" d="M137-103V0h-34v-103L8-248h37l75 118 75-118h37" id="ax"/><path fill="#333" d="M100-194c63 0 86 42 84 106H49c0 40 14 67 53 68 26 1 43-12 49-29l28 8c-11 28-37 45-77 45C44 4 14-33 15-96c1-61 26-98 85-98zm52 81c6-60-76-77-97-28-3 7-6 17-6 28h103" id="ay"/><path fill="#333" d="M135-143c-3-34-86-38-87 0 15 53 115 12 119 90S17 21 10-45l28-5c4 36 97 45 98 0-10-56-113-15-118-90-4-57 82-63 122-42 12 7 21 19 24 35" id="az"/><g id="q"><use transform="matrix(0.05,0,0,0.05,0,0)" xlink:href="#ax"/><use transform="matrix(0.05,0,0,0.05,10.35,0)" xlink:href="#ay"/><use transform="matrix(0.05,0,0,0.05,20.35,0)" xlink:href="#az"/></g><path fill="#333" d="M190 0L58-211 59 0H30v-248h39L202-35l-2-213h31V0h-41" id="aA"/><path fill="#333" d="M100-194c62-1 85 37 85 99 1 63-27 99-86 99S16-35 15-95c0-66 28-99 85-99zM99-20c44 1 53-31 53-75 0-43-8-75-51-75s-53 32-53 75 10 74 51 75" id="aB"/><g id="r"><use transform="matrix(0.05,0,0,0.05,0,0)" xlink:href="#aA"/><use transform="matrix(0.05,0,0,0.05,12.950000000000001,0)" xlink:href="#aB"/></g><path d="M24-231v-30h32v30H24zM24 0v-190h32V0H24" id="aC"/><path d="M135-143c-3-34-86-38-87 0 15 53 115 12 119 90S17 21 10-45l28-5c4 36 97 45 98 0-10-56-113-15-118-90-4-57 82-63 122-42 12 7 21 19 24 35" id="aD"/><g id="t"><use transform="matrix(0.043827160493827164,0,0,0.043827160493827164,0,0)" xlink:href="#aC"/><use transform="matrix(0.043827160493827164,0,0,0.043827160493827164,3.462345679012346,0)" xlink:href="#aD"/></g><path d="M117-194c89-4 53 116 60 194h-32v-121c0-31-8-49-39-48C34-167 62-67 57 0H25l-1-190h30c1 10-1 24 2 32 11-22 29-35 61-36" id="aE"/><path d="M100-194c62-1 85 37 85 99 1 63-27 99-86 99S16-35 15-95c0-66 28-99 85-99zM99-20c44 1 53-31 53-75 0-43-8-75-51-75s-53 32-53 75 10 74 51 75" id="aF"/><path d="M85-194c31 0 48 13 60 33l-1-100h32l1 261h-30c-2-10 0-23-3-31C134-8 116 4 85 4 32 4 16-35 15-94c0-66 23-100 70-100zm9 24c-40 0-46 34-46 75 0 40 6 74 45 74 42 0 51-32 51-76 0-42-9-74-50-73" id="aG"/><path d="M100-194c63 0 86 42 84 106H49c0 40 14 67 53 68 26 1 43-12 49-29l28 8c-11 28-37 45-77 45C44 4 14-33 15-96c1-61 26-98 85-98zm52 81c6-60-76-77-97-28-3 7-6 17-6 28h103" id="aH"/><path d="M233-177c-1 41-23 64-60 70L243 0h-38l-65-103H63V0H30v-248c88 3 205-21 203 71zM63-129c60-2 137 13 137-47 0-61-80-42-137-45v92" id="aI"/><path d="M84 4C-5 8 30-112 23-190h32v120c0 31 7 50 39 49 72-2 45-101 50-169h31l1 190h-30c-1-10 1-25-2-33-11 22-28 36-60 37" id="aJ"/><g id="u"><use transform="matrix(0.043827160493827164,0,0,0.043827160493827164,0,0)" xlink:href="#aE"/><use transform="matrix(0.043827160493827164,0,0,0.043827160493827164,8.765432098765432,0)" xlink:href="#aF"/><use transform="matrix(0.043827160493827164,0,0,0.043827160493827164,17.530864197530864,0)" xlink:href="#aG"/><use transform="matrix(0.043827160493827164,0,0,0.043827160493827164,26.296296296296298,0)" xlink:href="#aH"/><use transform="matrix(0.043827160493827164,0,0,0.043827160493827164,35.06172839506173,0)" xlink:href="#aI"/><use transform="matrix(0.043827160493827164,0,0,0.043827160493827164,46.412962962962965,0)" xlink:href="#aH"/><use transform="matrix(0.043827160493827164,0,0,0.043827160493827164,55.1783950617284,0)" xlink:href="#aJ"/><use transform="matrix(0.043827160493827164,0,0,0.043827160493827164,63.943827160493825,0)" xlink:href="#aD"/><use transform="matrix(0.043827160493827164,0,0,0.043827160493827164,71.83271604938271,0)" xlink:href="#aH"/></g><path d="M141-36C126-15 110 5 73 4 37 3 15-17 15-53c-1-64 63-63 125-63 3-35-9-54-41-54-24 1-41 7-42 31l-33-3c5-37 33-52 76-52 45 0 72 20 72 64v82c-1 20 7 32 28 27v20c-31 9-61-2-59-35zM48-53c0 20 12 33 32 33 41-3 63-29 60-74-43 2-92-5-92 41" id="aK"/><path d="M115-194c53 0 69 39 70 98 0 66-23 100-70 100C84 3 66-7 56-30L54 0H23l1-261h32v101c10-23 28-34 59-34zm-8 174c40 0 45-34 45-75 0-40-5-75-45-74-42 0-51 32-51 76 0 43 10 73 51 73" id="aL"/><path d="M24 0v-261h32V0H24" id="aM"/><path d="M103-251c84 0 111 97 45 133-19 10-37 24-39 52H78c0-63 77-55 77-114 0-30-21-42-52-43-32 0-53 17-56 46l-32-2c7-45 34-72 88-72zM77 0v-35h34V0H77" id="aN"/><g id="v"><use transform="matrix(0.043827160493827164,0,0,0.043827160493827164,0,0)" xlink:href="#aH"/><use transform="matrix(0.043827160493827164,0,0,0.043827160493827164,8.765432098765432,0)" xlink:href="#aE"/><use transform="matrix(0.043827160493827164,0,0,0.043827160493827164,17.530864197530864,0)" xlink:href="#aK"/><use transform="matrix(0.043827160493827164,0,0,0.043827160493827164,26.296296296296298,0)" xlink:href="#aL"/><use transform="matrix(0.043827160493827164,0,0,0.043827160493827164,35.06172839506173,0)" xlink:href="#aM"/><use transform="matrix(0.043827160493827164,0,0,0.043827160493827164,38.52407407407407,0)" xlink:href="#aH"/><use transform="matrix(0.043827160493827164,0,0,0.043827160493827164,47.2895061728395,0)" xlink:href="#aG"/><use transform="matrix(0.043827160493827164,0,0,0.043827160493827164,56.05493827160493,0)" xlink:href="#aN"/></g><path d="M76-167L44 0H12l33-167H18l4-23h27c3-47 25-81 82-69l-4 24c-35-8-44 15-46 45h37l-5 23H76" id="aO"/><g id="w"><use transform="matrix(0.04938271604938272,0,0,0.04938271604938272,0,0)" xlink:href="#aO"/><use transform="matrix(0.04938271604938272,0,0,0.04938271604938272,4.938271604938272,0)" xlink:href="#X"/><use transform="matrix(0.04938271604938272,0,0,0.04938271604938272,14.814814814814817,0)" xlink:href="#Z"/></g><path d="M198-190L69 30C53 58 25 83-20 72c4-11-1-27 19-22 33-1 43-29 59-52L20-190h32L79-34l84-156h35" id="aP"/><g id="x"><use transform="matrix(0.04938271604938272,0,0,0.04938271604938272,0,0)" xlink:href="#R"/><use transform="matrix(0.04938271604938272,0,0,0.04938271604938272,9.876543209876544,0)" xlink:href="#V"/><use transform="matrix(0.04938271604938272,0,0,0.04938271604938272,19.75308641975309,0)" xlink:href="#aP"/></g><path d="M133-28C103 26-5 8 13-77c13-62 24-115 90-117 29-1 46 15 56 35l19-102h32L160 0h-30zM45-64c-2 27 10 43 35 43 54-1 69-50 69-103 0-29-15-46-42-46-53-1-58 58-62 106" id="aQ"/><path d="M248-111c6-24 9-61-24-58-72 9-57 108-77 169h-31l26-142c3-37-50-30-64-10C52-115 50-51 37 0H6l36-190h30c-1 10-6 24-4 32 13-43 101-52 105 5 13-22 29-41 61-41 90 0 28 129 23 194h-31" id="aR"/><g id="y"><use transform="matrix(0.04938271604938272,0,0,0.04938271604938272,0,0)" xlink:href="#Z"/><use transform="matrix(0.04938271604938272,0,0,0.04938271604938272,5.8765432098765435,0)" xlink:href="#R"/><use transform="matrix(0.04938271604938272,0,0,0.04938271604938272,15.753086419753087,0)" xlink:href="#V"/><use transform="matrix(0.04938271604938272,0,0,0.04938271604938272,25.629629629629633,0)" xlink:href="#aQ"/><use transform="matrix(0.04938271604938272,0,0,0.04938271604938272,35.50617283950618,0)" xlink:href="#X"/><use transform="matrix(0.04938271604938272,0,0,0.04938271604938272,45.38271604938272,0)" xlink:href="#aR"/></g><path d="M33 0v-248h34V0H33" id="aS"/><g id="z"><use transform="matrix(0.043827160493827164,0,0,0.043827160493827164,0,0)" xlink:href="#aS"/><use transform="matrix(0.043827160493827164,0,0,0.043827160493827164,4.382716049382716,0)" xlink:href="#aD"/></g><path d="M106-169C34-169 62-67 57 0H25v-261h32l-1 103c12-21 28-36 61-36 89 0 53 116 60 194h-32v-121c2-32-8-49-39-48" id="aT"/><path d="M59-47c-2 24 18 29 38 22v24C64 9 27 4 27-40v-127H5v-23h24l9-43h21v43h35v23H59v120" id="aU"/><g id="A"><use transform="matrix(0.043827160493827164,0,0,0.043827160493827164,0,0)" xlink:href="#aT"/><use transform="matrix(0.043827160493827164,0,0,0.043827160493827164,8.765432098765432,0)" xlink:href="#aF"/><use transform="matrix(0.043827160493827164,0,0,0.043827160493827164,17.530864197530864,0)" xlink:href="#aD"/><use transform="matrix(0.043827160493827164,0,0,0.043827160493827164,25.419753086419753,0)" xlink:href="#aU"/></g><path d="M101-234c-31-9-42 10-38 44h38v23H63V0H32v-167H5v-23h27c-7-52 17-82 69-68v24" id="aV"/><g id="B"><use transform="matrix(0.043827160493827164,0,0,0.043827160493827164,0,0)" xlink:href="#aV"/><use transform="matrix(0.043827160493827164,0,0,0.043827160493827164,4.382716049382716,0)" xlink:href="#aF"/><use transform="matrix(0.043827160493827164,0,0,0.043827160493827164,13.148148148148149,0)" xlink:href="#aJ"/><use transform="matrix(0.043827160493827164,0,0,0.043827160493827164,21.913580246913583,0)" xlink:href="#aE"/><use transform="matrix(0.043827160493827164,0,0,0.043827160493827164,30.679012345679016,0)" xlink:href="#aG"/><use transform="matrix(0.043827160493827164,0,0,0.043827160493827164,39.44444444444444,0)" xlink:href="#aN"/></g><g id="C"><use transform="matrix(0.043827160493827164,0,0,0.043827160493827164,0,0)" xlink:href="#aS"/><use transform="matrix(0.043827160493827164,0,0,0.043827160493827164,4.382716049382716,0)" xlink:href="#aD"/></g><g id="D"><use transform="matrix(0.043827160493827164,0,0,0.043827160493827164,0,0)" xlink:href="#aC"/><use transform="matrix(0.043827160493827164,0,0,0.043827160493827164,3.462345679012346,0)" xlink:href="#aU"/></g><g id="E"><use transform="matrix(0.043827160493827164,0,0,0.043827160493827164,0,0)" xlink:href="#aC"/><use transform="matrix(0.043827160493827164,0,0,0.043827160493827164,3.462345679012346,0)" xlink:href="#aE"/></g><path d="M179-190L93 31C79 59 56 82 12 73V49c39 6 53-20 64-50L1-190h34L92-34l54-156h33" id="aW"/><g id="F"><use transform="matrix(0.043827160493827164,0,0,0.043827160493827164,0,0)" xlink:href="#aI"/><use transform="matrix(0.043827160493827164,0,0,0.043827160493827164,11.351234567901235,0)" xlink:href="#aH"/><use transform="matrix(0.043827160493827164,0,0,0.043827160493827164,20.116666666666667,0)" xlink:href="#aK"/><use transform="matrix(0.043827160493827164,0,0,0.043827160493827164,28.882098765432097,0)" xlink:href="#aG"/><use transform="matrix(0.043827160493827164,0,0,0.043827160493827164,37.64753086419753,0)" xlink:href="#aW"/></g><g id="G"><use transform="matrix(0.043827160493827164,0,0,0.043827160493827164,0,0)" xlink:href="#aD"/><use transform="matrix(0.043827160493827164,0,0,0.043827160493827164,7.888888888888889,0)" xlink:href="#aU"/><use transform="matrix(0.043827160493827164,0,0,0.043827160493827164,12.271604938271603,0)" xlink:href="#aK"/><use transform="matrix(0.043827160493827164,0,0,0.043827160493827164,21.037037037037038,0)" xlink:href="#aU"/><use transform="matrix(0.043827160493827164,0,0,0.043827160493827164,25.419753086419753,0)" xlink:href="#aH"/><use transform="matrix(0.043827160493827164,0,0,0.043827160493827164,34.18518518518518,0)" xlink:href="#aN"/></g><g id="H"><use transform="matrix(0.043827160493827164,0,0,0.043827160493827164,0,0)" xlink:href="#aD"/><use transform="matrix(0.043827160493827164,0,0,0.043827160493827164,7.888888888888889,0)" xlink:href="#aU"/><use transform="matrix(0.043827160493827164,0,0,0.043827160493827164,12.271604938271603,0)" xlink:href="#aK"/><use transform="matrix(0.043827160493827164,0,0,0.043827160493827164,21.037037037037038,0)" xlink:href="#aU"/><use transform="matrix(0.043827160493827164,0,0,0.043827160493827164,25.419753086419753,0)" xlink:href="#aH"/></g><g id="I"><use transform="matrix(0.043827160493827164,0,0,0.043827160493827164,0,0)" xlink:href="#aC"/><use transform="matrix(0.043827160493827164,0,0,0.043827160493827164,3.462345679012346,0)" xlink:href="#aD"/></g><path d="M30-248c118-7 216 8 213 122C240-48 200 0 122 0H30v-248zM63-27c89 8 146-16 146-99s-60-101-146-95v194" id="aX"/><path d="M115-194c55 1 70 41 70 98S169 2 115 4C84 4 66-9 55-30l1 105H24l-1-265h31l2 30c10-21 28-34 59-34zm-8 174c40 0 45-34 45-75s-6-73-45-74c-42 0-51 32-51 76 0 43 10 73 51 73" id="aY"/><path d="M114-163C36-179 61-72 57 0H25l-1-190h30c1 12-1 29 2 39 6-27 23-49 58-41v29" id="aZ"/><path d="M108 0H70L1-190h34L89-25l56-165h34" id="ba"/><path d="M177-190C167-65 218 103 67 71c-23-6-38-20-44-43l32-5c15 47 100 32 89-28v-30C133-14 115 1 83 1 29 1 15-40 15-95c0-56 16-97 71-98 29-1 48 16 59 35 1-10 0-23 2-32h30zM94-22c36 0 50-32 50-73 0-42-14-75-50-75-39 0-46 34-46 75s6 73 46 73" id="bb"/><g id="J"><use transform="matrix(0.043827160493827164,0,0,0.043827160493827164,0,0)" xlink:href="#aX"/><use transform="matrix(0.043827160493827164,0,0,0.043827160493827164,11.351234567901235,0)" xlink:href="#aH"/><use transform="matrix(0.043827160493827164,0,0,0.043827160493827164,20.116666666666667,0)" xlink:href="#aY"/><use transform="matrix(0.043827160493827164,0,0,0.043827160493827164,28.882098765432097,0)" xlink:href="#aZ"/><use transform="matrix(0.043827160493827164,0,0,0.043827160493827164,34.09753086419753,0)" xlink:href="#aF"/><use transform="matrix(0.043827160493827164,0,0,0.043827160493827164,42.86296296296296,0)" xlink:href="#ba"/><use transform="matrix(0.043827160493827164,0,0,0.043827160493827164,50.75185185185185,0)" xlink:href="#aC"/><use transform="matrix(0.043827160493827164,0,0,0.043827160493827164,54.214197530864205,0)" xlink:href="#aD"/><use transform="matrix(0.043827160493827164,0,0,0.043827160493827164,62.10308641975308,0)" xlink:href="#aC"/><use transform="matrix(0.043827160493827164,0,0,0.043827160493827164,65.56543209876543,0)" xlink:href="#aF"/><use transform="matrix(0.043827160493827164,0,0,0.043827160493827164,74.33086419753086,0)" xlink:href="#aE"/><use transform="matrix(0.043827160493827164,0,0,0.043827160493827164,83.09629629629629,0)" xlink:href="#aC"/><use transform="matrix(0.043827160493827164,0,0,0.043827160493827164,86.55864197530863,0)" xlink:href="#aE"/><use transform="matrix(0.043827160493827164,0,0,0.043827160493827164,95.32407407407406,0)" xlink:href="#bb"/></g><path fill="#fff" d="M30-248c118-7 216 8 213 122C240-48 200 0 122 0H30v-248zM63-27c89 8 146-16 146-99s-60-101-146-95v194" id="bc"/><g id="K"><use transform="matrix(0.043827160493827164,0,0,0.043827160493827164,0,0)" xlink:href="#bc"/><use transform="matrix(0.043827160493827164,0,0,0.043827160493827164,11.351234567901235,0)" xlink:href="#av"/><use transform="matrix(0.043827160493827164,0,0,0.043827160493827164,20.116666666666667,0)" xlink:href="#as"/><use transform="matrix(0.043827160493827164,0,0,0.043827160493827164,28.882098765432097,0)" xlink:href="#al"/><use transform="matrix(0.043827160493827164,0,0,0.043827160493827164,34.09753086419753,0)" xlink:href="#am"/><use transform="matrix(0.043827160493827164,0,0,0.043827160493827164,42.86296296296296,0)" xlink:href="#an"/><use transform="matrix(0.043827160493827164,0,0,0.043827160493827164,50.75185185185185,0)" xlink:href="#ao"/><use transform="matrix(0.043827160493827164,0,0,0.043827160493827164,54.214197530864205,0)" xlink:href="#ap"/><use transform="matrix(0.043827160493827164,0,0,0.043827160493827164,62.10308641975308,0)" xlink:href="#ao"/><use transform="matrix(0.043827160493827164,0,0,0.043827160493827164,65.56543209876543,0)" xlink:href="#am"/><use transform="matrix(0.043827160493827164,0,0,0.043827160493827164,74.33086419753086,0)" xlink:href="#aq"/><use transform="matrix(0.043827160493827164,0,0,0.043827160493827164,83.09629629629629,0)" xlink:href="#ao"/><use transform="matrix(0.043827160493827164,0,0,0.043827160493827164,86.55864197530863,0)" xlink:href="#aq"/><use transform="matrix(0.043827160493827164,0,0,0.043827160493827164,95.32407407407406,0)" xlink:href="#ar"/></g><path d="M249-183c0 48-29 72-75 77L221 0h-36l-43-103H65L45 0H11l48-248c83 2 190-17 190 65zm-34 3c0-55-74-39-127-41l-18 92c63-1 145 13 145-51" id="bd"/><g id="L"><use transform="matrix(0.043827160493827164,0,0,0.043827160493827164,0,0)" xlink:href="#bd"/><use transform="matrix(0.043827160493827164,0,0,0.043827160493827164,11.351234567901235,0)" xlink:href="#W"/><use transform="matrix(0.043827160493827164,0,0,0.043827160493827164,20.116666666666667,0)" xlink:href="#aR"/><use transform="matrix(0.043827160493827164,0,0,0.043827160493827164,33.22098765432099,0)" xlink:href="#X"/><use transform="matrix(0.043827160493827164,0,0,0.043827160493827164,41.98641975308642,0)" xlink:href="#ad"/><use transform="matrix(0.043827160493827164,0,0,0.043827160493827164,49.87530864197531,0)" xlink:href="#W"/></g><g id="M"><use transform="matrix(0.043827160493827164,0,0,0.043827160493827164,0,0)" xlink:href="#Y"/><use transform="matrix(0.043827160493827164,0,0,0.043827160493827164,4.382716049382716,0)" xlink:href="#T"/><use transform="matrix(0.043827160493827164,0,0,0.043827160493827164,13.148148148148149,0)" xlink:href="#W"/></g><g id="N"><use transform="matrix(0.043827160493827164,0,0,0.043827160493827164,0,0)" xlink:href="#aa"/><use transform="matrix(0.043827160493827164,0,0,0.043827160493827164,3.462345679012346,0)" xlink:href="#R"/><use transform="matrix(0.043827160493827164,0,0,0.043827160493827164,12.227777777777778,0)" xlink:href="#ai"/><use transform="matrix(0.043827160493827164,0,0,0.043827160493827164,20.99320987654321,0)" xlink:href="#W"/><use transform="matrix(0.043827160493827164,0,0,0.043827160493827164,29.758641975308645,0)" xlink:href="#aa"/></g><path d="M238-179c0 84-86 86-175 82L45 0H11l48-248c82 0 179-12 179 69zm-34 1c0-53-64-42-116-43l-19 98c63 0 135 9 135-55" id="be"/><g id="O"><use transform="matrix(0.043827160493827164,0,0,0.043827160493827164,0,0)" xlink:href="#be"/><use transform="matrix(0.043827160493827164,0,0,0.043827160493827164,10.518518518518519,0)" xlink:href="#Z"/><use transform="matrix(0.043827160493827164,0,0,0.043827160493827164,15.733950617283952,0)" xlink:href="#X"/><use transform="matrix(0.043827160493827164,0,0,0.043827160493827164,24.499382716049386,0)" xlink:href="#ad"/><use transform="matrix(0.043827160493827164,0,0,0.043827160493827164,32.38827160493827,0)" xlink:href="#U"/><use transform="matrix(0.043827160493827164,0,0,0.043827160493827164,35.85061728395061,0)" xlink:href="#ae"/><use transform="matrix(0.043827160493827164,0,0,0.043827160493827164,43.7395061728395,0)" xlink:href="#U"/><use transform="matrix(0.043827160493827164,0,0,0.043827160493827164,47.20185185185184,0)" xlink:href="#X"/><use transform="matrix(0.043827160493827164,0,0,0.043827160493827164,55.967283950617265,0)" xlink:href="#V"/></g><g id="P"><use transform="matrix(0.043827160493827164,0,0,0.043827160493827164,0,0)" xlink:href="#T"/><use transform="matrix(0.043827160493827164,0,0,0.043827160493827164,8.765432098765432,0)" xlink:href="#X"/><use transform="matrix(0.043827160493827164,0,0,0.043827160493827164,17.530864197530864,0)" xlink:href="#ae"/><use transform="matrix(0.043827160493827164,0,0,0.043827160493827164,25.419753086419753,0)" xlink:href="#Y"/></g></defs></g></svg>