<?xml version="1.0" encoding="utf-8"?>
<!-- Generator: Adobe Illustrator 23.0.3, SVG Export Plug-In . SVG Version: 6.00 Build 0)  -->
<svg version="1.1" id="Layer_1" xmlns="http://www.w3.org/2000/svg" xmlns:xlink="http://www.w3.org/1999/xlink" x="0px" y="0px"
	 viewBox="0 0 557.7 540" style="enable-background:new 0 0 557.7 540;" xml:space="preserve">
<style type="text/css">
	.st0{fill:#FFFFFF;}
	.st1{fill:#00E0C1;}
	.st2{fill:#00FBDB;}
	.st3{fill:#00EEC4;}
	.st4{fill:#00D1BD;}
</style>
<title>Asset 3</title>
<g>
	<path class="st0" d="M181.6,539.6h-0.7c-0.8,0-1.4-0.1-2-0.2h-0.1l-1.6-0.2c-15.2-1.9-29.4-8.7-40.3-19.5l-1.1-1.1l-49.5-61.3
		L13,366.7l-0.5-0.7c-2.9-4.1-5.3-8.5-7.2-13.1c-1-2.5-1.9-5.1-2.6-7.8V345c-0.2-0.9-0.4-1.7-0.6-2.6v-0.1
		c-0.8-3.6-1.3-7.3-1.4-10.9V331v-0.5c-0.1-4.1,0.3-8.3,1-12.3l0.1-0.6L16.3,254L45,128c4-17.4,15.8-32.1,32-39.7L255.2,2.4l3.3-0.7
		C264.2,0.6,270,0,275.8,0c0.9,0,1.8,0,2.8,0h0.6c8.5,0,16.8,1.8,24.5,5.3l0.5,0.2L480,89.7l0.5,0.2c7.1,3.8,13.5,8.7,18.8,14.8
		c2.8,3.1,5.3,6.5,7.4,10.1l0.2,0.3c2.2,3.8,3.9,7.8,5.2,12l0.3,1l44.2,190.2l0.2,1.4c2,16.4-2.2,33.1-11.8,46.5l-0.5,0.7
		L423.2,517.1c-7.3,9.6-17.5,16.6-29.1,19.9c-0.9,0.3-1.9,0.5-2.8,0.8l-0.3,0.1c-5,1.2-10.2,1.8-15.4,1.8L181.6,539.6L181.6,539.6z"
		/>
	<path class="st1" d="M491.7,131.6c-0.8-2.3-1.8-4.6-3-6.7c-1.3-2.1-2.7-4.1-4.4-5.9c-3.3-3.7-7.2-6.8-11.6-9.1l-179.8-86
		c-4.4-2-9.1-3-13.9-2.9h-0.8c-4.9-0.2-9.9,0.2-14.7,1.2L83.8,108.8c-9,4.1-15.5,12.2-17.7,21.8l-3.7,16.2l216.3,117.7l0.3-0.2
		l217.2-112.7L491.7,131.6z"/>
	<polygon class="st2" points="279.1,264.4 279.1,264.1 278.7,264.3 	"/>
	<path class="st3" d="M278.7,264.3L62.4,146.6L36.6,259.7l-14.7,64.6c-0.4,2.5-0.6,5-0.6,7.5v0.3c0.1,2.1,0.3,4.3,0.8,6.4
		c0.1,0.6,0.3,1.1,0.4,1.6c0.4,1.6,0.9,3.1,1.5,4.6c1.1,2.8,2.6,5.4,4.3,7.9L52,381.9l51,63l49.7,61.5c6.8,6.7,15.6,11,25.1,12.2
		c0.7,0,1.3,0.2,2,0.2H279V264.5L278.7,264.3z"/>
	<path class="st4" d="M536.5,324.3l-40.2-173L279.1,264.1v254.7h98.8c3.3,0,6.5-0.3,9.7-1.1c0.6-0.2,1.2-0.3,1.8-0.5
		c6.2-1.8,11.7-5.6,15.6-10.8l66.1-81.8l31.3-38.7l26.9-33.3C535.2,344.4,537.7,334.3,536.5,324.3z"/>
	<path class="st0" d="M120.7,368.9l137,75.9c2.1,1.2,4.8,0.4,6-1.7c0.4-0.7,0.6-1.4,0.6-2.2v-161c0-5.7-3.1-11-8.2-13.7l-1.6-0.9
		l-134.7-72c-1.3-0.7-2.8-0.2-3.5,1.1c-0.2,0.4-0.3,0.8-0.3,1.2l-0.9,163.2C115,362.5,117.7,367.3,120.7,368.9z"/>
	<path class="st0" d="M282.3,103.8c-4,0-8,0.8-11.7,2.5l-134.2,60.5c-1.3,0.6-1.9,2.1-1.3,3.4c0.2,0.5,0.6,1,1.2,1.2L272,243.9
		c0.1,0.1,0.3,0.2,0.5,0.2l0.6,0.3l0.3,0.1l0.8,0.3h0.1c5,1.9,10.5,1.5,15.2-1l139.1-73.9c1.6-0.8,2.2-2.8,1.4-4.4
		c-0.3-0.7-0.9-1.2-1.6-1.5l-135.1-58C289.8,104.6,286.1,103.8,282.3,103.8z"/>
	<path class="st0" d="M442.6,192.6c-1.1-0.5-2.4-0.3-4,0.6l-24.5,13.5c-3.6,2-6.4,5.2-7.8,9.1l-37.5,87.6l-37.3-46.2
		c-1.6-2.3-4.2-2.4-7.8-0.5l-24.5,13.5c-1.6,0.9-3,2.3-4,3.9c-1,1.4-1.6,3.2-1.6,4.9v166.8c0,1.6,0.5,2.6,1.6,3s2.4,0.2,4-0.7
		l27.3-15.1c1.6-0.9,3-2.2,4-3.7c1-1.4,1.6-3.1,1.6-4.8v-105l23.2,30.1c2.2,2.1,4.7,2.4,7.6,0.8l11.7-6.4c3.2-1.7,5.7-4.8,7.6-9.2
		l23.4-55.9l0.2,97.1l0.2,8.3c-0.1,1.2,0.6,2.4,1.7,2.9c1.3,0.4,2.7,0.2,3.8-0.5l27.3-15.8c1.6-0.9,2.9-2.2,3.9-3.8
		c1-1.4,1.5-3.1,1.5-4.8V195.7C444.2,194.1,443.6,193,442.6,192.6z"/>
	<g>
		<path class="st0" d="M155.4,117.3l-5.3-11c-0.6-1.3-1.4-2.2-2.3-2.6c-0.9-0.4-2-0.3-3.2,0.3c-1.6,0.8-2.6,1.8-2.9,3.1
			c-0.3,1.3,0,2.9,0.9,4.8l4.5,9.4l-2.6,1.2l-5.3-11c-0.6-1.3-1.4-2.2-2.3-2.6c-0.9-0.4-2-0.3-3.2,0.3c-1.6,0.8-2.5,1.8-2.8,3.1
			c-0.3,1.3,0.1,3.1,1.2,5.3l4.3,8.9l-2.6,1.2l-8.1-16.9l2.1-1l1.5,2.1l0.1-0.1c0.1-1.1,0.5-2,1.1-2.9c0.7-0.9,1.5-1.6,2.6-2.1
			c2.6-1.3,4.8-1.1,6.6,0.4l0.1-0.1c0.1-1.1,0.5-2.2,1.2-3.2c0.7-1,1.7-1.8,2.9-2.3c1.9-0.9,3.6-1.1,5-0.6c1.4,0.5,2.7,1.9,3.7,4
			l5.3,11L155.4,117.3z"/>
		<path class="st0" d="M170.5,110.4c-2.5,1.2-4.8,1.4-7,0.6c-2.2-0.8-3.9-2.6-5.2-5.3c-1.3-2.7-1.7-5.2-1.1-7.5c0.6-2.2,2-3.9,4.2-5
			c2.1-1,4.1-1.1,6-0.3c1.9,0.8,3.4,2.3,4.5,4.6l0.8,1.6l-11.6,5.6c1,2,2.2,3.2,3.7,3.8c1.4,0.6,3,0.4,4.8-0.4
			c1.8-0.9,3.4-2.1,4.9-3.7l1.1,2.3c-0.7,0.8-1.4,1.5-2.2,2.1C172.6,109.3,171.6,109.8,170.5,110.4z M162.4,95.3
			c-1.4,0.7-2.2,1.6-2.6,2.9c-0.4,1.3-0.3,2.7,0.3,4.4l8.8-4.2c-0.8-1.6-1.7-2.7-2.9-3.2C165,94.6,163.8,94.7,162.4,95.3z"/>
		<path class="st0" d="M185.5,100.5c0.5-0.2,0.9-0.5,1.3-0.7c0.4-0.3,0.7-0.5,0.9-0.7l0.9,2c-0.2,0.3-0.6,0.6-1.1,0.9
			c-0.5,0.3-1,0.6-1.4,0.8c-3.3,1.6-5.7,0.6-7.4-2.8L174,90l-2.4,1.2l-0.6-1.2l1.9-2.2l-0.7-4.1l1.5-0.7l1.9,3.9l4.9-2.4l1,2
			l-4.9,2.4l4.8,10c0.5,1,1.1,1.7,1.9,2C183.9,101,184.7,100.9,185.5,100.5z"/>
		<path class="st0" d="M202.5,94.6l-1.7-2.2l-0.1,0.1c-0.3,1.5-0.8,2.6-1.5,3.4c-0.7,0.8-1.6,1.5-2.9,2.1c-1.7,0.8-3.2,1-4.6,0.6
			c-1.4-0.4-2.4-1.4-3.2-3c-1.6-3.4,0.2-6.5,5.6-9.3l2.8-1.5l-0.5-1c-0.6-1.3-1.4-2.2-2.3-2.5c-0.9-0.4-1.9-0.2-3.2,0.4
			c-1.4,0.7-2.8,1.9-4.2,3.6l-1.7-1.6c0.6-0.9,1.4-1.6,2.2-2.4c0.9-0.7,1.8-1.3,2.8-1.8c2-1,3.7-1.2,5.1-0.8
			c1.4,0.4,2.6,1.6,3.5,3.6l5.5,11.5L202.5,94.6z M195.8,95.6c1.6-0.8,2.6-1.8,3.1-3.1c0.5-1.3,0.4-2.8-0.4-4.3l-0.7-1.5l-2.5,1.3
			c-2,1.1-3.3,2.1-3.9,3.1c-0.6,1-0.7,2.1-0.1,3.3c0.4,0.9,1.1,1.5,1.9,1.7S194.8,96.1,195.8,95.6z"/>
		<path class="st0" d="M212.2,89.9l-2.6,1.2l-11.5-24l2.6-1.2L212.2,89.9z"/>
		<path class="st0" d="M222.2,63.9c0.7,1.4,0.9,2.8,0.5,4.1c-0.4,1.3-1.2,2.5-2.5,3.5l0.1,0.1c1.9-0.6,3.5-0.7,4.9-0.2
			c1.3,0.5,2.3,1.5,3.1,3c1,2.1,1.1,4.2,0.1,6c-0.9,1.9-2.8,3.5-5.5,4.8c-1.2,0.6-2.3,1-3.4,1.3c-1.1,0.3-2.2,0.4-3.3,0.4l-1.2-2.4
			c1.2,0,2.4-0.1,3.7-0.4c1.2-0.3,2.3-0.7,3.3-1.1c3.9-1.9,5.1-4.3,3.6-7.4c-1.3-2.7-4.1-3.1-8.4-1l-2.2,1.1l-1.1-2.2l2.3-1.1
			c1.8-0.8,3-1.9,3.6-3.2c0.7-1.3,0.7-2.6,0-4c-0.5-1.1-1.3-1.8-2.4-2s-2.2-0.1-3.5,0.5c-1,0.5-1.9,1.1-2.6,1.7s-1.5,1.7-2.3,2.9
			l-2.1-1.1c0.6-1.2,1.4-2.3,2.4-3.3c1-1,2.2-1.8,3.5-2.5c2.2-1.1,4.1-1.4,5.8-1C220.1,61.1,221.3,62.2,222.2,63.9z"/>
		<path class="st0" d="M234.6,77.2c-0.3-0.7-0.4-1.3-0.3-1.8s0.5-0.9,1.1-1.2c0.6-0.3,1.1-0.3,1.7-0.1s0.9,0.6,1.3,1.3
			c0.3,0.7,0.4,1.3,0.2,1.8c-0.2,0.5-0.5,0.9-1.1,1.2c-0.5,0.3-1,0.3-1.5,0.1C235.4,78.4,234.9,77.9,234.6,77.2z"/>
		<path class="st0" d="M233.6,53.2c-0.3-0.6-0.3-1.1-0.2-1.5c0.2-0.4,0.5-0.7,0.9-0.9c0.4-0.2,0.8-0.2,1.3-0.1
			c0.4,0.1,0.8,0.5,1.1,1.1c0.3,0.6,0.3,1.1,0.2,1.5c-0.2,0.4-0.4,0.7-0.9,0.9c-0.4,0.2-0.9,0.2-1.3,0.1
			C234.2,54.1,233.9,53.8,233.6,53.2z M246.7,73.4l-2.6,1.2L236,57.7l2.6-1.2L246.7,73.4z"/>
		<path class="st0" d="M262.6,55.3c1.3,2.8,1.7,5.2,1,7.5s-2.2,3.9-4.6,5.1c-1.5,0.7-3,1-4.5,0.9c-1.5-0.1-2.9-0.7-4.2-1.8
			c-1.3-1-2.3-2.4-3.2-4.2c-1.3-2.8-1.7-5.2-1-7.4c0.6-2.2,2.2-3.9,4.6-5.1c2.4-1.1,4.6-1.3,6.8-0.4
			C259.6,50.8,261.4,52.6,262.6,55.3z M249.8,61.4c1,2.2,2.3,3.6,3.7,4.3c1.4,0.7,3,0.7,4.6-0.1c1.7-0.8,2.7-2,3-3.5s0-3.4-1.1-5.6
			c-1-2.2-2.3-3.6-3.7-4.3c-1.4-0.7-3-0.6-4.7,0.2c-1.7,0.8-2.7,2-3,3.5C248.4,57.4,248.7,59.3,249.8,61.4z"/>
	</g>
</g>
</svg>
