<svg xmlns="http://www.w3.org/2000/svg" viewBox="0 0 1412.13 539.68"><defs><style>.cls-1{fill:#fff;}.cls-2{fill:#00e0c1;}.cls-3{fill:#00fbdb;}.cls-4{fill:#00eec4;}.cls-5{fill:#00d1bd;}</style></defs><title>Asset 12</title><g id="Layer_2" data-name="Layer 2"><g id="Layer_1-2" data-name="Layer 1"><path class="cls-1" d="M180.91,539.68l-.7,0c-.76,0-1.44-.11-2-.17h-.14l-1.62-.2a69.39,69.39,0,0,1-40.27-19.47l-1.07-1.06L85.65,457.52,12.31,366.93l-.5-.72a64.48,64.48,0,0,1-7.17-13.15,63.72,63.72,0,0,1-2.58-7.77l0-.11c-.22-.85-.43-1.69-.62-2.56l0-.14A62,62,0,0,1,0,331.54l0-.47v-.48a63.77,63.77,0,0,1,1-12.34l.11-.61L15.62,254,44.34,128a58.22,58.22,0,0,1,32-39.68L254.54,2.39l3.34-.67A88.08,88.08,0,0,1,275.17,0C276.1,0,277,0,278,0h.57a58.85,58.85,0,0,1,24.5,5.29l.47.22L479.36,89.71l.48.25a67.34,67.34,0,0,1,18.84,14.75,63.34,63.34,0,0,1,7.39,10.06l.17.29a59.75,59.75,0,0,1,5.23,12l.3,1L556,318.31l.17,1.42a66.12,66.12,0,0,1-11.79,46.54l-.48.68L422.44,517.19a55.73,55.73,0,0,1-29.06,19.91c-.93.27-1.87.52-2.81.75l-.3.07a67.75,67.75,0,0,1-15.35,1.76Z"/><path class="cls-2" d="M491,131.65a33.86,33.86,0,0,0-3-6.73,36.56,36.56,0,0,0-4.36-5.92A41.59,41.59,0,0,0,472,109.87l-179.82-86a32.89,32.89,0,0,0-13.88-2.95h-.77a62.33,62.33,0,0,0-14.74,1.18L83.07,108.7A31.64,31.64,0,0,0,65.4,130.49l-3.69,16.16L278,264.32l.34-.18L495.56,151.42Z"/><polygon class="cls-3" points="278.33 264.5 278.33 264.14 277.99 264.32 278.33 264.5"/><path class="cls-4" d="M278,264.32,61.71,146.65,35.94,259.75,21.21,324.38a36.83,36.83,0,0,0-.58,7.48v.29a36.13,36.13,0,0,0,.79,6.39c.12.56.26,1.1.4,1.65a37.35,37.35,0,0,0,1.54,4.62,38.29,38.29,0,0,0,4.28,7.85l23.69,29.27,51,63L152,506.48a43.1,43.1,0,0,0,25.14,12.16c.67,0,1.31.18,2,.21h99.17V264.51Z"/><path class="cls-5" d="M535.75,324.38l-40.19-173L278.33,264.14V518.85h98.82a41.62,41.62,0,0,0,9.69-1.09c.62-.15,1.23-.31,1.84-.49a29.12,29.12,0,0,0,15.56-10.79l66.09-81.75L501.64,386l26.94-33.33A40.27,40.27,0,0,0,535.75,324.38Z"/><path class="cls-1" d="M119.94,369l137,75.89a4.42,4.42,0,0,0,6.57-3.87V280a15.51,15.51,0,0,0-8.19-13.67l-1.64-.87L119,193.47a2.6,2.6,0,0,0-3.83,2.28l-.94,163.17C114.25,362.55,117,367.36,119.94,369Z"/><path class="cls-1" d="M281.61,103.85a27.78,27.78,0,0,0-11.71,2.48L135.7,166.8a2.61,2.61,0,0,0-.16,4.69L271.26,244c.15.09.31.16.47.24l.59.29.26.11.8.34.09,0a18.55,18.55,0,0,0,15.24-1l139.14-73.94a3.24,3.24,0,0,0-.24-5.85L292.55,106.14A27.86,27.86,0,0,0,281.61,103.85Z"/><path class="cls-1" d="M441.82,192.61q-1.62-.74-4,.59L413.3,206.74a17.15,17.15,0,0,0-7.81,9.09L368,303.38l-37.31-46.2c-1.59-2.29-4.2-2.45-7.81-.45l-24.51,13.54a11.18,11.18,0,0,0-4,3.85,9.09,9.09,0,0,0-1.62,4.91V445.86c0,1.59.55,2.59,1.63,3s2.42.19,4-.69l27.34-15.1a11.53,11.53,0,0,0,4-3.74,8.52,8.52,0,0,0,1.63-4.8v-105l23.21,30.12q3.25,3.19,7.59.8L373.82,344q4.77-2.62,7.59-9.18l23.43-55.9.25,97.1.17,8.31a2.85,2.85,0,0,0,1.69,2.86,4.16,4.16,0,0,0,3.78-.55L438,370.81A11.49,11.49,0,0,0,441.9,367a8.49,8.49,0,0,0,1.52-4.84l0-166.43C443.45,194.13,442.91,193.09,441.82,192.61Z"/><path d="M674.12,243.82l-45.2-112h-.67q.68,10.28.67,21.06v90.91h-8.13V122.56h13.1l43,106.66h.49l43-106.66h12.77V243.82h-8.54v-91.9q0-9.63,1-19.91h-.66L679.51,243.82Z"/><path d="M801.68,245.48q-19.65,0-30.64-12.11t-11-33.93q0-21.56,10.61-34.54t28.62-13q15.91,0,25.13,11.11t9.21,30.19v6.64h-65q.17,18.57,8.67,28.36T801.68,238a75.25,75.25,0,0,0,13.56-1.08,83,83,0,0,0,14.81-4.64v7.46a66.14,66.14,0,0,1-14.1,4.52A78.39,78.39,0,0,1,801.68,245.48Zm-2.4-86.26q-13,0-20.9,8.58t-9.21,24.76h55.74q0-15.67-6.8-24.51T799.28,159.22Z"/><path d="M882.3,238.18a61.82,61.82,0,0,0,13.6-1.33v6.63a43.4,43.4,0,0,1-13.76,2q-12,0-17.63-6.39T858.83,219V160.79H845.48V156l13.35-3.73,4.15-20.4h4.23v21.81h26.46v7.13H867.21v57.07q0,10.37,3.65,15.34T882.3,238.18Z"/><path d="M970.14,243.82l-2.08-14.27h-.66q-6.81,8.72-14,12.32a37.37,37.37,0,0,1-17,3.61q-13.28,0-20.65-6.81t-7.38-18.82a23.23,23.23,0,0,1,11-20.49q11-7.29,31.81-7.71l17.16-.5v-6q0-12.85-5.22-19.41t-16.84-6.55q-12.52,0-26,7l-3.07-7.13a68.8,68.8,0,0,1,29.36-7q14.85,0,22.19,7.72t7.34,24v60ZM937,238q14.43,0,22.77-8.25t8.33-22.93V198l-15.76.66q-19,.91-27.08,5.93t-8.08,15.64q0,8.46,5.18,13.14T937,238Z"/><path d="M1013.6,243.82h-8.21V114.76h8.21Z"/><path d="M1127.39,243.82H1117l-46.52-64-16.18,14.26v49.77h-8.46V122.56h8.46v63l13.44-13.44,47.52-49.59h10.78l-49.68,51.25Z"/><path d="M1149.62,153.66v58.39q0,13.6,5.72,19.78t17.75,6.18q16.1,0,23.68-8.13t7.59-26.46V153.66h8.13v90.16h-7L1204,231.38h-.5q-8.79,14.1-31.27,14.1-30.77,0-30.77-32.93V153.66Z"/><path d="M1280.75,151.92q18.91,0,28.49,11.9t9.58,34.79q0,22.48-10.08,34.67t-28.32,12.2a37.19,37.19,0,0,1-17.34-4,30.34,30.34,0,0,1-12.19-11.28h-.74l-2.33,13.61h-5.14V114.76h8.21v32.43c0,4.87-.11,9.34-.33,13.44l-.25,7.05h.58a33,33,0,0,1,12.4-12Q1270.55,151.92,1280.75,151.92Zm-.16,7.46q-15.93,0-22.81,9.13t-6.89,30.1V200q0,20.41,7.18,29.28t22.35,8.88q14.76,0,22.23-10.33t7.46-29.4Q1310.11,159.38,1280.59,159.38Z"/><path d="M1380.2,245.48q-19.67,0-30.65-12.11t-11-33.93q0-21.56,10.62-34.54t28.61-13q15.93,0,25.13,11.11t9.21,30.19v6.64h-64.94q.16,18.57,8.66,28.36T1380.2,238a75.41,75.41,0,0,0,13.56-1.08,82.94,82.94,0,0,0,14.8-4.64v7.46a66.14,66.14,0,0,1-14.1,4.52A78.36,78.36,0,0,1,1380.2,245.48Zm-2.41-86.26q-13,0-20.9,8.58t-9.21,24.76h55.74q0-15.67-6.8-24.51T1377.79,159.22Z"/><path d="M622.06,422a4.07,4.07,0,0,1-1.27-3V308.74A4.37,4.37,0,0,1,622,305.6a4,4,0,0,1,3.06-1.28h79a4.37,4.37,0,0,1,4.42,4.42v18a4,4,0,0,1-1.28,3.06A4.43,4.43,0,0,1,704,331H652V354.6h48.58A4.34,4.34,0,0,1,705,359v18a4,4,0,0,1-1.27,3.06,4.46,4.46,0,0,1-3.15,1.19H652V419a4.19,4.19,0,0,1-1.19,3,4,4,0,0,1-3.05,1.28H625A4.08,4.08,0,0,1,622.06,422Z"/><path d="M731.28,421.44a28.12,28.12,0,0,1-11.55-9.6,23.34,23.34,0,0,1-4.16-13.41q0-11.55,9.6-18.77t26.41-9.94l21.07-3.23v-2c0-4.19-.85-7.24-2.55-9.17s-4.59-2.89-8.66-2.89a12.34,12.34,0,0,0-5.7,1.19,31.38,31.38,0,0,0-5.18,3.57,20.59,20.59,0,0,1-3.9,2.72,2,2,0,0,1-1.7,1.19H725.25a3.79,3.79,0,0,1-2.8-1.11,3,3,0,0,1-.93-2.63q.16-4.59,4.58-10.28t13.42-9.77q9-4.06,22.25-4.07,21.06,0,31.26,9.26t10.19,25.05V419a4.23,4.23,0,0,1-1.19,3,4,4,0,0,1-3.06,1.28H778.08a4.36,4.36,0,0,1-4.24-4.25v-6a27.51,27.51,0,0,1-10.37,8.58,34.91,34.91,0,0,1-15.79,3.31A38,38,0,0,1,731.28,421.44Zm37-21.49Q773,395,773,385.69v-2L758.89,386q-14.28,2.72-14.27,10.19a7.37,7.37,0,0,0,3.31,6.28,13.73,13.73,0,0,0,8.24,2.38A16,16,0,0,0,768.31,400Z"/><path d="M831.5,414.65q-12-10.27-12.82-28.62l-.17-6.8.17-7q.68-18.34,12.74-28.71t31.42-10.36q14.77,0,24.8,5.26t15,12.49q4.92,7.21,5.27,13.16a3.68,3.68,0,0,1-1.19,3.15,4.62,4.62,0,0,1-3.23,1.27H880.68a4.37,4.37,0,0,1-2.89-.85,7.53,7.53,0,0,1-1.87-2.72,15.44,15.44,0,0,0-4.84-7,12.35,12.35,0,0,0-7.56-2.21q-13.08,0-13.59,17.33l-.17,6.45.17,5.61q.17,8.83,3.57,13t10,4.16c3.28,0,5.86-.7,7.73-2.12s3.42-3.76,4.67-7a7.72,7.72,0,0,1,1.87-2.72,4.43,4.43,0,0,1,2.89-.85h22.76a4.55,4.55,0,0,1,3.06,1.19,3.72,3.72,0,0,1,1.36,2.89q0,5.26-4.68,12.65t-14.86,13q-10.19,5.61-25.48,5.6Q843.47,424.92,831.5,414.65Z"/><path d="M931.29,413.8q-11.88-11.13-12.23-32.36v-5.27q.68-20.21,12.57-31.59t32.11-11.38q14.61,0,24.71,5.86a37,37,0,0,1,15.12,16.14,52.59,52.59,0,0,1,5,23.35v4.25a4.34,4.34,0,0,1-4.42,4.41H950.32v1q.16,7.65,3.57,12.32a11.25,11.25,0,0,0,9.68,4.67,11.84,11.84,0,0,0,6.54-1.61,23,23,0,0,0,4.67-4.17,9.08,9.08,0,0,1,2.46-2.12,7.71,7.71,0,0,1,3-.42h22.26a4,4,0,0,1,2.63.93,2.91,2.91,0,0,1,1.1,2.29q0,4.42-5,10.37t-14.61,10.19q-9.6,4.24-22.67,4.24Q943.18,424.92,931.29,413.8Zm46-43.91v-.34c0-5.44-1.19-9.65-3.57-12.66s-5.72-4.5-10-4.5-7.62,1.5-9.94,4.5-3.48,7.22-3.48,12.66v.34Z"/><path d="M1034.06,389.42V358h-13.42a4.38,4.38,0,0,1-4.25-4.25V339.14a4,4,0,0,1,1.28-3.05,4.19,4.19,0,0,1,3-1.19h13.42v-28a4,4,0,0,1,1.27-3.06,4.24,4.24,0,0,1,3-1.19h20.89a4.08,4.08,0,0,1,4.25,4.25v28h21.23a4.41,4.41,0,0,1,3.14,1.19,4,4,0,0,1,1.28,3.05v14.61a4,4,0,0,1-1.28,3.06,4.45,4.45,0,0,1-3.14,1.19h-21.23v28.88q0,5.94,2.2,9t7.14,3.06h13.42a4,4,0,0,1,3.06,1.27,4.45,4.45,0,0,1,1.19,3.14V419a4.23,4.23,0,0,1-1.19,3,4,4,0,0,1-3.06,1.28h-16.14Q1034.05,423.23,1034.06,389.42Z"/></g></g></svg>