<?xml version="1.0" encoding="utf-8"?>
<!-- Generator: Adobe Illustrator 23.0.2, SVG Export Plug-In . SVG Version: 6.00 Build 0)  -->
<svg version="1.1" id="Layer_1" xmlns="http://www.w3.org/2000/svg" xmlns:xlink="http://www.w3.org/1999/xlink" x="0px" y="0px"
	 viewBox="0 0 557.7 540" style="enable-background:new 0 0 557.7 540;" xml:space="preserve">
<style type="text/css">
	.st0{fill:#FFFFFF;}
	.st1{fill:#00E0C1;}
	.st2{fill:#00FBDB;}
	.st3{fill:#00EEC4;}
	.st4{fill:#00D1BD;}
	.st5{enable-background:new    ;}
</style>
<title>Asset 3</title>
<g>
	<g>
		<path class="st0" d="M181.7,539.9H181c-0.8,0-1.4-0.1-2-0.2h-0.1l-1.6-0.2c-15.2-1.9-29.4-8.7-40.3-19.5l-1.1-1.1l-49.5-61.3
			L13.1,367l-0.5-0.7c-2.9-4.1-5.3-8.5-7.2-13.1c-1-2.5-1.9-5.1-2.6-7.8v-0.1c-0.2-0.9-0.4-1.7-0.6-2.6v-0.1
			c-0.8-3.6-1.3-7.3-1.4-10.9v-0.4v-0.5c-0.1-4.1,0.3-8.3,1-12.3l0.1-0.6l14.5-63.6l28.7-126c4-17.4,15.8-32.1,32-39.7L255.3,2.7
			l3.3-0.7c5.7-1.1,11.5-1.7,17.3-1.7c0.9,0,1.8,0,2.8,0h0.6c8.5,0,16.8,1.8,24.5,5.3l0.5,0.2L480.1,90l0.5,0.2
			c7.1,3.8,13.5,8.7,18.8,14.8c2.8,3.1,5.3,6.5,7.4,10.1l0.2,0.3c2.2,3.8,3.9,7.8,5.2,12l0.3,1l44.2,190.2l0.2,1.4
			c2,16.4-2.2,33.1-11.8,46.5l-0.5,0.7L423.3,517.4c-7.3,9.6-17.5,16.6-29.1,19.9c-0.9,0.3-1.9,0.5-2.8,0.8l-0.3,0.1
			c-5,1.2-10.2,1.8-15.4,1.8L181.7,539.9L181.7,539.9z"/>
	</g>
	<path class="st1" d="M491.8,131.9c-0.8-2.3-1.8-4.6-3-6.7c-1.3-2.1-2.7-4.1-4.4-5.9c-3.3-3.7-7.2-6.8-11.6-9.1L293,24.2
		c-4.4-2-9.1-3-13.9-2.9h-0.8c-4.9-0.2-9.9,0.2-14.7,1.2L83.9,109.1c-9,4.1-15.5,12.2-17.7,21.8l-3.7,16.2l216.3,117.7l0.3-0.2
		l217.2-112.7L491.8,131.9z"/>
	<polygon class="st2" points="279.2,264.7 279.2,264.4 278.8,264.6 	"/>
	<path class="st3" d="M278.8,264.6L62.5,146.9L36.7,260L22,324.6c-0.4,2.5-0.6,5-0.6,7.5v0.3c0.1,2.1,0.3,4.3,0.8,6.4
		c0.1,0.6,0.3,1.1,0.4,1.6c0.4,1.6,0.9,3.1,1.5,4.6c1.1,2.8,2.6,5.4,4.3,7.9l23.7,29.3l51,63l49.7,61.5c6.8,6.7,15.6,11,25.1,12.2
		c0.7,0,1.3,0.2,2,0.2h99.2V264.8L278.8,264.6z"/>
	<path class="st4" d="M536.6,324.6l-40.2-173L279.2,264.4v254.7H378c3.3,0,6.5-0.3,9.7-1.1c0.6-0.2,1.2-0.3,1.8-0.5
		c6.2-1.8,11.7-5.6,15.6-10.8l66.1-81.8l31.3-38.7l26.9-33.3C535.3,344.7,537.8,334.6,536.6,324.6z"/>
	<path class="st0" d="M120.8,369.2l137,75.9c2.1,1.2,4.8,0.4,6-1.7c0.4-0.7,0.6-1.4,0.6-2.2v-161c0-5.7-3.1-11-8.2-13.7l-1.6-0.9
		l-134.7-72c-1.3-0.7-2.8-0.2-3.5,1.1c-0.2,0.4-0.3,0.8-0.3,1.2l-0.9,163.2C115.1,362.8,117.8,367.6,120.8,369.2z"/>
	<path class="st0" d="M282.4,104.1c-4,0-8,0.8-11.7,2.5l-134.2,60.5c-1.3,0.6-1.9,2.1-1.3,3.4c0.2,0.5,0.6,1,1.2,1.2l135.7,72.5
		c0.1,0.1,0.3,0.2,0.5,0.2l0.6,0.3l0.3,0.1l0.8,0.3h0.1c5,1.9,10.5,1.5,15.2-1l139.1-73.9c1.6-0.8,2.2-2.8,1.4-4.4
		c-0.3-0.7-0.9-1.2-1.6-1.5l-135.1-58C289.9,104.9,286.2,104.1,282.4,104.1z"/>
	<path class="st0" d="M442.7,192.9c-1.1-0.5-2.4-0.3-4,0.6L414.2,207c-3.6,2-6.4,5.2-7.8,9.1l-37.5,87.6l-37.3-46.2
		c-1.6-2.3-4.2-2.4-7.8-0.5l-24.5,13.5c-1.6,0.9-3,2.3-4,3.9c-1,1.4-1.6,3.2-1.6,4.9v166.8c0,1.6,0.5,2.6,1.6,3s2.4,0.2,4-0.7
		l27.3-15.1c1.6-0.9,3-2.2,4-3.7c1-1.4,1.6-3.1,1.6-4.8v-105l23.2,30.1c2.2,2.1,4.7,2.4,7.6,0.8l11.7-6.4c3.2-1.7,5.7-4.8,7.6-9.2
		l23.4-55.9l0.2,97.1l0.2,8.3c-0.1,1.2,0.6,2.4,1.7,2.9c1.3,0.4,2.7,0.2,3.8-0.5l27.3-15.8c1.6-0.9,2.9-2.2,3.9-3.8
		c1-1.4,1.5-3.1,1.5-4.8V196C444.3,194.4,443.7,193.3,442.7,192.9z"/>
	<g class="st5">
		<path class="st0" d="M122.6,129.9l-4.4-9c-0.5-1.1-1.2-1.8-1.9-2.1c-0.7-0.3-1.6-0.2-2.6,0.2c-1.3,0.6-2.1,1.5-2.4,2.5
			c-0.3,1.1,0,2.4,0.7,3.9l3.7,7.8l-2.1,1l-4.4-9c-0.5-1.1-1.2-1.8-1.9-2.1c-0.7-0.3-1.6-0.2-2.6,0.2c-1.3,0.6-2.1,1.5-2.3,2.6
			c-0.2,1.1,0.1,2.5,1,4.3l3.5,7.3l-2.1,1l-6.7-13.9l1.7-0.8l1.3,1.7l0.1,0c0.1-0.9,0.4-1.7,0.9-2.4c0.5-0.7,1.3-1.3,2.2-1.7
			c2.2-1,4-0.9,5.4,0.3l0.1,0c0.1-0.9,0.4-1.8,1-2.6c0.6-0.8,1.4-1.4,2.4-1.9c1.6-0.8,2.9-0.9,4.1-0.5c1.2,0.4,2.2,1.5,3,3.3
			l4.4,9.1L122.6,129.9z"/>
		<path class="st0" d="M135,124.3c-2.1,1-4,1.1-5.8,0.5c-1.8-0.7-3.2-2.1-4.3-4.4c-1.1-2.2-1.4-4.3-0.9-6.1c0.5-1.8,1.6-3.2,3.5-4.1
			c1.7-0.8,3.4-0.9,5-0.3s2.8,1.9,3.7,3.8l0.6,1.3l-9.6,4.6c0.8,1.6,1.8,2.7,3,3.1c1.2,0.5,2.5,0.4,3.9-0.3c1.5-0.7,2.8-1.7,4-3.1
			l0.9,1.9c-0.6,0.7-1.2,1.2-1.8,1.7C136.8,123.4,136,123.8,135,124.3z M128.4,111.9c-1.1,0.5-1.8,1.3-2.1,2.4
			c-0.3,1-0.2,2.2,0.3,3.6l7.3-3.5c-0.6-1.3-1.4-2.2-2.4-2.6C130.5,111.3,129.5,111.4,128.4,111.9z"/>
		<path class="st0" d="M147.4,116.2c0.4-0.2,0.7-0.4,1-0.6c0.3-0.2,0.6-0.4,0.7-0.6l0.8,1.6c-0.2,0.2-0.5,0.5-0.9,0.8
			c-0.4,0.3-0.8,0.5-1.1,0.7c-2.7,1.3-4.7,0.5-6.1-2.3l-4-8.3l-2,1l-0.5-1l1.6-1.8l-0.5-3.4l1.2-0.6l1.6,3.2l4-1.9l0.8,1.6l-4,1.9
			l3.9,8.2c0.4,0.8,0.9,1.4,1.5,1.6C146.1,116.6,146.7,116.5,147.4,116.2z"/>
		<path class="st0" d="M161.3,111.3l-1.4-1.8l-0.1,0c-0.3,1.2-0.7,2.1-1.2,2.8c-0.5,0.6-1.3,1.2-2.4,1.7c-1.4,0.7-2.6,0.8-3.8,0.5
			c-1.1-0.3-2-1.2-2.6-2.5c-1.4-2.8,0.2-5.4,4.6-7.7l2.3-1.2l-0.4-0.9c-0.5-1.1-1.1-1.8-1.9-2.1c-0.7-0.3-1.6-0.2-2.6,0.3
			c-1.2,0.6-2.3,1.5-3.4,3l-1.4-1.3c0.5-0.7,1.1-1.4,1.8-2c0.7-0.6,1.5-1.1,2.3-1.5c1.7-0.8,3.1-1,4.2-0.7c1.2,0.3,2.1,1.3,2.9,3
			l4.6,9.5L161.3,111.3z M155.9,112.1c1.3-0.6,2.2-1.5,2.6-2.6c0.4-1.1,0.3-2.3-0.3-3.6l-0.6-1.3l-2.1,1.1c-1.6,0.9-2.7,1.7-3.2,2.5
			c-0.5,0.8-0.5,1.7-0.1,2.7c0.4,0.8,0.9,1.2,1.5,1.4S155,112.5,155.9,112.1z"/>
		<path class="st0" d="M169.3,107.4l-2.1,1l-9.5-19.7l2.1-1L169.3,107.4z"/>
		<path class="st0" d="M172.5,97.2c0.1-0.7,0.3-1.6,0.7-2.8l2.2-6.9l2.5-1.2l-2.8,8.6l9.9,5.1l-2.5,1.2l-8.1-4.2l-0.9,2.1l2.5,5.2
			l-2.1,1l-9.5-19.7l2.1-1l5,10.5c0.2,0.5,0.5,1.2,0.9,2.2L172.5,97.2z"/>
		<path class="st0" d="M182.7,83.9l4.3,9c0.5,1.1,1.2,1.9,2,2.2s1.7,0.2,2.8-0.3c1.5-0.7,2.3-1.6,2.6-2.7c0.3-1.1,0-2.6-0.9-4.4
			l-3.5-7.3l2.1-1l6.7,13.9l-1.7,0.8l-1.2-1.7l-0.1,0.1c-0.1,0.9-0.4,1.7-1,2.4c-0.6,0.7-1.4,1.3-2.4,1.8c-1.7,0.8-3.1,1-4.4,0.6
			c-1.2-0.4-2.3-1.5-3.1-3.2l-4.4-9.1L182.7,83.9z"/>
		<path class="st0" d="M203,73.8c1.8-0.9,3.5-0.9,5.2-0.2c1.6,0.8,3,2.3,4.1,4.6c1.1,2.3,1.4,4.3,1,6.1c-0.4,1.8-1.5,3.1-3.3,3.9
			c-0.9,0.4-1.8,0.7-2.7,0.7c-0.9,0-1.8-0.2-2.6-0.6l-0.2,0.1l0.4,2l-1.5,0.7l-9.5-19.7l2.1-1l2.3,4.8c0.5,1.1,0.9,2.1,1.3,2.9
			l0.1,0C200,76.1,201.1,74.8,203,73.8z M203.6,75.7c-1.4,0.7-2.3,1.6-2.5,2.7c-0.2,1.1,0.1,2.7,1.1,4.6c0.9,2,1.9,3.2,3,3.7
			c1.1,0.5,2.3,0.4,3.7-0.2c1.3-0.6,2-1.6,2.2-2.8c0.2-1.2-0.2-2.8-1-4.5c-0.9-1.8-1.8-3-2.9-3.6C206.1,75.1,204.9,75.1,203.6,75.7z
			"/>
		<path class="st0" d="M225.3,80.8c-2.1,1-4,1.1-5.8,0.5s-3.2-2.1-4.3-4.4c-1.1-2.2-1.4-4.3-0.9-6.1c0.5-1.8,1.6-3.2,3.5-4.1
			c1.7-0.8,3.4-0.9,5-0.3s2.8,1.9,3.7,3.8l0.6,1.3l-9.6,4.6c0.8,1.6,1.8,2.7,3,3.1c1.2,0.5,2.5,0.4,3.9-0.3c1.5-0.7,2.8-1.7,4-3.1
			l0.9,1.9c-0.6,0.7-1.2,1.2-1.8,1.7C227,79.9,226.2,80.4,225.3,80.8z M218.6,68.5c-1.1,0.5-1.8,1.3-2.1,2.4c-0.3,1-0.2,2.2,0.3,3.6
			l7.3-3.5c-0.6-1.3-1.4-2.2-2.4-2.6C220.7,67.9,219.7,67.9,218.6,68.5z"/>
		<path class="st0" d="M232.9,75.2c-0.3-0.6-0.4-1.1-0.2-1.5c0.1-0.4,0.4-0.7,0.9-1c0.5-0.2,0.9-0.3,1.4-0.1c0.4,0.2,0.8,0.5,1,1.1
			c0.3,0.5,0.3,1,0.2,1.5c-0.1,0.4-0.4,0.8-0.9,1c-0.4,0.2-0.9,0.2-1.3,0.1S233.2,75.8,232.9,75.2z"/>
		<path class="st0" d="M249.4,60.3c1.1,2.3,1.4,4.3,0.8,6.1c-0.5,1.8-1.8,3.2-3.8,4.2c-1.2,0.6-2.5,0.8-3.7,0.7
			c-1.2-0.1-2.4-0.6-3.4-1.4c-1-0.8-1.9-2-2.6-3.5c-1.1-2.3-1.4-4.3-0.8-6.1c0.5-1.8,1.8-3.2,3.8-4.2c1.9-0.9,3.8-1,5.6-0.3
			C246.9,56.6,248.3,58.1,249.4,60.3z M238.8,65.4c0.9,1.8,1.9,3,3,3.5c1.2,0.6,2.4,0.6,3.8-0.1c1.4-0.7,2.2-1.6,2.5-2.9
			c0.3-1.3,0-2.8-0.9-4.6c-0.8-1.8-1.9-2.9-3-3.5c-1.2-0.6-2.4-0.5-3.8,0.1c-1.4,0.7-2.2,1.6-2.5,2.9
			C237.6,62.1,237.9,63.6,238.8,65.4z"/>
		<path class="st0" d="M256,48.3c0.6-0.3,1.2-0.5,1.7-0.6l0.6,2.1c-0.6,0.1-1.2,0.3-1.6,0.5c-1.1,0.5-1.9,1.5-2.2,2.8
			c-0.4,1.3-0.2,2.6,0.4,4l3.6,7.5l-2.1,1l-6.7-13.9l1.7-0.8l1.5,2.5l0.1,0c0.1-1.2,0.4-2.1,0.9-3C254.4,49.4,255.1,48.7,256,48.3z"
			/>
		<path class="st0" d="M271.7,41l0.6,1.3l-2.4,1.5c0.4,0.2,0.8,0.5,1.2,0.9c0.4,0.4,0.8,0.9,1.1,1.5c0.7,1.4,0.7,2.7,0.2,3.9
			c-0.5,1.3-1.6,2.3-3.2,3.1c-0.4,0.2-0.8,0.4-1.2,0.5c-0.7,0.9-0.8,1.7-0.5,2.4c0.2,0.4,0.5,0.6,0.9,0.6s1-0.1,1.7-0.5l2.5-1.2
			c1.5-0.7,2.8-1,3.9-0.7c1.1,0.2,2,1,2.5,2.2c0.7,1.5,0.7,3-0.2,4.4c-0.8,1.4-2.5,2.7-4.8,3.8c-1.8,0.9-3.4,1.2-4.7,1
			c-1.3-0.2-2.3-0.9-2.9-2.2c-0.4-0.8-0.5-1.7-0.2-2.6c0.2-0.9,0.8-1.7,1.7-2.4c-0.4,0-0.9-0.1-1.3-0.3c-0.4-0.2-0.7-0.6-0.9-1
			c-0.2-0.5-0.3-1-0.2-1.5c0.1-0.5,0.3-1.1,0.7-1.7c-0.9,0.1-1.7-0.2-2.5-0.7s-1.4-1.2-1.8-2.1c-0.7-1.5-0.8-2.9-0.3-4.2
			c0.5-1.3,1.6-2.3,3.3-3.1c0.7-0.4,1.4-0.6,2.1-0.7L271.7,41z M263.9,50.3c0.5,1,1.1,1.6,1.9,1.8c0.8,0.2,1.7,0.1,2.7-0.4
			c2.1-1,2.6-2.5,1.6-4.5c-1-2.1-2.5-2.6-4.6-1.6c-1,0.5-1.6,1.1-1.9,1.9C263.3,48.3,263.4,49.2,263.9,50.3z M268.5,62.6
			c0.4,0.8,1,1.2,1.8,1.3c0.8,0.1,1.8-0.2,3-0.7c1.8-0.9,2.9-1.7,3.5-2.7c0.6-0.9,0.7-1.9,0.2-2.8c-0.4-0.8-0.8-1.2-1.5-1.2
			c-0.6-0.1-1.6,0.2-2.8,0.8l-2.5,1.2c-1,0.5-1.6,1-1.9,1.8C268,61,268,61.7,268.5,62.6z"/>
	</g>
</g>
</svg>
